<svg width="124" height="15" viewBox="0 0 124 15" fill="none" xmlns="http://www.w3.org/2000/svg">
<path d="M6.594 1.242V2.278H2.352V5.568H5.796V6.604H2.352V11H1.078V1.242H6.594ZM11.4787 11.126C10.76 11.126 10.1067 10.9627 9.51869 10.636C8.94002 10.3093 8.48269 9.84733 8.14669 9.25C7.82002 8.64333 7.65669 7.94333 7.65669 7.15C7.65669 6.366 7.82469 5.67533 8.16069 5.078C8.50602 4.47133 8.97269 4.00933 9.56069 3.692C10.1487 3.36533 10.8067 3.202 11.5347 3.202C12.2627 3.202 12.9207 3.36533 13.5087 3.692C14.0967 4.00933 14.5587 4.46667 14.8947 5.064C15.24 5.66133 15.4127 6.35667 15.4127 7.15C15.4127 7.94333 15.2354 8.64333 14.8807 9.25C14.5354 9.84733 14.064 10.3093 13.4667 10.636C12.8694 10.9627 12.2067 11.126 11.4787 11.126ZM11.4787 10.006C11.936 10.006 12.3654 9.89867 12.7667 9.684C13.168 9.46933 13.49 9.14733 13.7327 8.718C13.9847 8.28867 14.1107 7.766 14.1107 7.15C14.1107 6.534 13.9894 6.01133 13.7467 5.582C13.504 5.15267 13.1867 4.83533 12.7947 4.63C12.4027 4.41533 11.978 4.308 11.5207 4.308C11.054 4.308 10.6247 4.41533 10.2327 4.63C9.85002 4.83533 9.54202 5.15267 9.30869 5.582C9.07535 6.01133 8.95869 6.534 8.95869 7.15C8.95869 7.77533 9.07069 8.30267 9.29469 8.732C9.52802 9.16133 9.83602 9.48333 10.2187 9.698C10.6014 9.90333 11.0214 10.006 11.4787 10.006ZM18.3618 4.574C18.5858 4.13533 18.9031 3.79467 19.3138 3.552C19.7338 3.30933 20.2424 3.188 20.8398 3.188V4.504H20.5038C19.0758 4.504 18.3618 5.27867 18.3618 6.828V11H17.0878V3.328H18.3618V4.574ZM25.4744 3.202C26.1371 3.202 26.7158 3.34667 27.2104 3.636C27.7144 3.92533 28.0878 4.28933 28.3304 4.728V3.328H29.6184V11.168C29.6184 11.868 29.4691 12.4887 29.1704 13.03C28.8718 13.5807 28.4424 14.01 27.8824 14.318C27.3318 14.626 26.6878 14.78 25.9504 14.78C24.9424 14.78 24.1024 14.542 23.4304 14.066C22.7584 13.59 22.3618 12.9413 22.2404 12.12H23.5004C23.6404 12.5867 23.9298 12.96 24.3684 13.24C24.8071 13.5293 25.3344 13.674 25.9504 13.674C26.6504 13.674 27.2198 13.4547 27.6584 13.016C28.1064 12.5773 28.3304 11.9613 28.3304 11.168V9.558C28.0784 10.006 27.7051 10.3793 27.2104 10.678C26.7158 10.9767 26.1371 11.126 25.4744 11.126C24.7931 11.126 24.1724 10.958 23.6124 10.622C23.0618 10.286 22.6278 9.81467 22.3104 9.208C21.9931 8.60133 21.8344 7.91067 21.8344 7.136C21.8344 6.352 21.9931 5.666 22.3104 5.078C22.6278 4.48067 23.0618 4.01867 23.6124 3.692C24.1724 3.36533 24.7931 3.202 25.4744 3.202ZM28.3304 7.15C28.3304 6.57133 28.2138 6.06733 27.9804 5.638C27.7471 5.20867 27.4298 4.882 27.0284 4.658C26.6364 4.42467 26.2024 4.308 25.7264 4.308C25.2504 4.308 24.8164 4.42 24.4244 4.644C24.0324 4.868 23.7198 5.19467 23.4864 5.624C23.2531 6.05333 23.1364 6.55733 23.1364 7.136C23.1364 7.724 23.2531 8.23733 23.4864 8.676C23.7198 9.10533 24.0324 9.43667 24.4244 9.67C24.8164 9.894 25.2504 10.006 25.7264 10.006C26.2024 10.006 26.6364 9.894 27.0284 9.67C27.4298 9.43667 27.7471 9.10533 27.9804 8.676C28.2138 8.23733 28.3304 7.72867 28.3304 7.15ZM35.1174 11.126C34.3987 11.126 33.7454 10.9627 33.1574 10.636C32.5787 10.3093 32.1214 9.84733 31.7854 9.25C31.4587 8.64333 31.2954 7.94333 31.2954 7.15C31.2954 6.366 31.4634 5.67533 31.7994 5.078C32.1447 4.47133 32.6114 4.00933 33.1994 3.692C33.7874 3.36533 34.4454 3.202 35.1734 3.202C35.9014 3.202 36.5594 3.36533 37.1474 3.692C37.7354 4.00933 38.1974 4.46667 38.5334 5.064C38.8787 5.66133 39.0514 6.35667 39.0514 7.15C39.0514 7.94333 38.874 8.64333 38.5194 9.25C38.174 9.84733 37.7027 10.3093 37.1054 10.636C36.508 10.9627 35.8454 11.126 35.1174 11.126ZM35.1174 10.006C35.5747 10.006 36.004 9.89867 36.4054 9.684C36.8067 9.46933 37.1287 9.14733 37.3714 8.718C37.6234 8.28867 37.7494 7.766 37.7494 7.15C37.7494 6.534 37.628 6.01133 37.3854 5.582C37.1427 5.15267 36.8254 4.83533 36.4334 4.63C36.0414 4.41533 35.6167 4.308 35.1594 4.308C34.6927 4.308 34.2634 4.41533 33.8714 4.63C33.4887 4.83533 33.1807 5.15267 32.9474 5.582C32.714 6.01133 32.5974 6.534 32.5974 7.15C32.5974 7.77533 32.7094 8.30267 32.9334 8.732C33.1667 9.16133 33.4747 9.48333 33.8574 9.698C34.24 9.90333 34.66 10.006 35.1174 10.006ZM42.2804 4.378V8.9C42.2804 9.27333 42.3598 9.53933 42.5184 9.698C42.6771 9.84733 42.9524 9.922 43.3444 9.922H44.2824V11H43.1344C42.4251 11 41.8931 10.8367 41.5384 10.51C41.1838 10.1833 41.0064 9.64667 41.0064 8.9V4.378H40.0124V3.328H41.0064V1.396H42.2804V3.328H44.2824V4.378H42.2804ZM56.0825 4.098C56.0825 4.91 55.8025 5.58667 55.2425 6.128C54.6918 6.66 53.8471 6.926 52.7085 6.926H50.8325V11H49.5585V1.242H52.7085C53.8098 1.242 54.6451 1.508 55.2145 2.04C55.7931 2.572 56.0825 3.258 56.0825 4.098ZM52.7085 5.876C53.4178 5.876 53.9405 5.722 54.2765 5.414C54.6125 5.106 54.7805 4.66733 54.7805 4.098C54.7805 2.894 54.0898 2.292 52.7085 2.292H50.8325V5.876H52.7085ZM57.1899 7.136C57.1899 6.352 57.3486 5.666 57.6659 5.078C57.9832 4.48067 58.4172 4.01867 58.9679 3.692C59.5279 3.36533 60.1486 3.202 60.8299 3.202C61.5019 3.202 62.0852 3.34667 62.5799 3.636C63.0746 3.92533 63.4432 4.28933 63.6859 4.728V3.328H64.9739V11H63.6859V9.572C63.4339 10.02 63.0559 10.3933 62.5519 10.692C62.0572 10.9813 61.4786 11.126 60.8159 11.126C60.1346 11.126 59.5186 10.958 58.9679 10.622C58.4172 10.286 57.9832 9.81467 57.6659 9.208C57.3486 8.60133 57.1899 7.91067 57.1899 7.136ZM63.6859 7.15C63.6859 6.57133 63.5692 6.06733 63.3359 5.638C63.1026 5.20867 62.7852 4.882 62.3839 4.658C61.9919 4.42467 61.5579 4.308 61.0819 4.308C60.6059 4.308 60.1719 4.42 59.7799 4.644C59.3879 4.868 59.0752 5.19467 58.8419 5.624C58.6086 6.05333 58.4919 6.55733 58.4919 7.136C58.4919 7.724 58.6086 8.23733 58.8419 8.676C59.0752 9.10533 59.3879 9.43667 59.7799 9.67C60.1719 9.894 60.6059 10.006 61.0819 10.006C61.5579 10.006 61.9919 9.894 62.3839 9.67C62.7852 9.43667 63.1026 9.10533 63.3359 8.676C63.5692 8.23733 63.6859 7.72867 63.6859 7.15ZM69.8428 11.126C69.2548 11.126 68.7275 11.028 68.2608 10.832C67.7942 10.6267 67.4255 10.3467 67.1548 9.992C66.8842 9.628 66.7348 9.21267 66.7068 8.746H68.0228C68.0602 9.12867 68.2375 9.44133 68.5548 9.684C68.8815 9.92667 69.3062 10.048 69.8288 10.048C70.3142 10.048 70.6968 9.94067 70.9768 9.726C71.2568 9.51133 71.3968 9.24067 71.3968 8.914C71.3968 8.578 71.2475 8.33067 70.9488 8.172C70.6502 8.004 70.1882 7.84067 69.5628 7.682C68.9935 7.53267 68.5268 7.38333 68.1628 7.234C67.8082 7.07533 67.5002 6.84667 67.2388 6.548C66.9868 6.24 66.8608 5.83867 66.8608 5.344C66.8608 4.952 66.9775 4.59267 67.2108 4.266C67.4442 3.93933 67.7755 3.68267 68.2048 3.496C68.6342 3.3 69.1242 3.202 69.6748 3.202C70.5242 3.202 71.2102 3.41667 71.7328 3.846C72.2555 4.27533 72.5355 4.86333 72.5728 5.61H71.2988C71.2708 5.20867 71.1075 4.88667 70.8088 4.644C70.5195 4.40133 70.1275 4.28 69.6328 4.28C69.1755 4.28 68.8115 4.378 68.5408 4.574C68.2702 4.77 68.1348 5.02667 68.1348 5.344C68.1348 5.596 68.2142 5.806 68.3728 5.974C68.5408 6.13267 68.7462 6.26333 68.9888 6.366C69.2408 6.45933 69.5862 6.56667 70.0248 6.688C70.5755 6.83733 71.0235 6.98667 71.3688 7.136C71.7142 7.276 72.0082 7.49067 72.2508 7.78C72.5028 8.06933 72.6335 8.44733 72.6428 8.914C72.6428 9.334 72.5262 9.712 72.2928 10.048C72.0595 10.384 71.7282 10.65 71.2988 10.846C70.8788 11.0327 70.3935 11.126 69.8428 11.126ZM77.1573 11.126C76.5693 11.126 76.0419 11.028 75.5753 10.832C75.1086 10.6267 74.7399 10.3467 74.4693 9.992C74.1986 9.628 74.0493 9.21267 74.0213 8.746H75.3373C75.3746 9.12867 75.5519 9.44133 75.8693 9.684C76.1959 9.92667 76.6206 10.048 77.1433 10.048C77.6286 10.048 78.0113 9.94067 78.2913 9.726C78.5713 9.51133 78.7113 9.24067 78.7113 8.914C78.7113 8.578 78.5619 8.33067 78.2633 8.172C77.9646 8.004 77.5026 7.84067 76.8773 7.682C76.3079 7.53267 75.8413 7.38333 75.4773 7.234C75.1226 7.07533 74.8146 6.84667 74.5533 6.548C74.3013 6.24 74.1753 5.83867 74.1753 5.344C74.1753 4.952 74.2919 4.59267 74.5253 4.266C74.7586 3.93933 75.0899 3.68267 75.5193 3.496C75.9486 3.3 76.4386 3.202 76.9893 3.202C77.8386 3.202 78.5246 3.41667 79.0473 3.846C79.5699 4.27533 79.8499 4.86333 79.8873 5.61H78.6133C78.5853 5.20867 78.4219 4.88667 78.1233 4.644C77.8339 4.40133 77.4419 4.28 76.9473 4.28C76.4899 4.28 76.1259 4.378 75.8553 4.574C75.5846 4.77 75.4493 5.02667 75.4493 5.344C75.4493 5.596 75.5286 5.806 75.6873 5.974C75.8553 6.13267 76.0606 6.26333 76.3033 6.366C76.5553 6.45933 76.9006 6.56667 77.3393 6.688C77.8899 6.83733 78.3379 6.98667 78.6833 7.136C79.0286 7.276 79.3226 7.49067 79.5653 7.78C79.8173 8.06933 79.9479 8.44733 79.9573 8.914C79.9573 9.334 79.8406 9.712 79.6073 10.048C79.3739 10.384 79.0426 10.65 78.6133 10.846C78.1933 11.0327 77.7079 11.126 77.1573 11.126ZM91.9757 3.328L89.5817 11H88.2657L86.4177 4.91L84.5697 11H83.2537L80.8457 3.328H82.1477L83.9117 9.768L85.8157 3.328H87.1177L88.9797 9.782L90.7157 3.328H91.9757ZM96.5861 11.126C95.8674 11.126 95.2141 10.9627 94.6261 10.636C94.0474 10.3093 93.5901 9.84733 93.2541 9.25C92.9274 8.64333 92.7641 7.94333 92.7641 7.15C92.7641 6.366 92.9321 5.67533 93.2681 5.078C93.6134 4.47133 94.0801 4.00933 94.6681 3.692C95.2561 3.36533 95.9141 3.202 96.6421 3.202C97.3701 3.202 98.0281 3.36533 98.6161 3.692C99.2041 4.00933 99.6661 4.46667 100.002 5.064C100.347 5.66133 100.52 6.35667 100.52 7.15C100.52 7.94333 100.343 8.64333 99.9881 9.25C99.6428 9.84733 99.1714 10.3093 98.5741 10.636C97.9768 10.9627 97.3141 11.126 96.5861 11.126ZM96.5861 10.006C97.0434 10.006 97.4728 9.89867 97.8741 9.684C98.2754 9.46933 98.5974 9.14733 98.8401 8.718C99.0921 8.28867 99.2181 7.766 99.2181 7.15C99.2181 6.534 99.0968 6.01133 98.8541 5.582C98.6114 5.15267 98.2941 4.83533 97.9021 4.63C97.5101 4.41533 97.0854 4.308 96.6281 4.308C96.1614 4.308 95.7321 4.41533 95.3401 4.63C94.9574 4.83533 94.6494 5.15267 94.4161 5.582C94.1828 6.01133 94.0661 6.534 94.0661 7.15C94.0661 7.77533 94.1781 8.30267 94.4021 8.732C94.6354 9.16133 94.9434 9.48333 95.3261 9.698C95.7088 9.90333 96.1288 10.006 96.5861 10.006ZM103.469 4.574C103.693 4.13533 104.011 3.79467 104.421 3.552C104.841 3.30933 105.35 3.188 105.947 3.188V4.504H105.611C104.183 4.504 103.469 5.27867 103.469 6.828V11H102.195V3.328H103.469V4.574ZM106.942 7.136C106.942 6.352 107.101 5.666 107.418 5.078C107.735 4.48067 108.169 4.01867 108.72 3.692C109.28 3.36533 109.905 3.202 110.596 3.202C111.193 3.202 111.749 3.342 112.262 3.622C112.775 3.89267 113.167 4.252 113.438 4.7V0.64H114.726V11H113.438V9.558C113.186 10.0153 112.813 10.3933 112.318 10.692C111.823 10.9813 111.245 11.126 110.582 11.126C109.901 11.126 109.28 10.958 108.72 10.622C108.169 10.286 107.735 9.81467 107.418 9.208C107.101 8.60133 106.942 7.91067 106.942 7.136ZM113.438 7.15C113.438 6.57133 113.321 6.06733 113.088 5.638C112.855 5.20867 112.537 4.882 112.136 4.658C111.744 4.42467 111.31 4.308 110.834 4.308C110.358 4.308 109.924 4.42 109.532 4.644C109.14 4.868 108.827 5.19467 108.594 5.624C108.361 6.05333 108.244 6.55733 108.244 7.136C108.244 7.724 108.361 8.23733 108.594 8.676C108.827 9.10533 109.14 9.43667 109.532 9.67C109.924 9.894 110.358 10.006 110.834 10.006C111.31 10.006 111.744 9.894 112.136 9.67C112.537 9.43667 112.855 9.10533 113.088 8.676C113.321 8.23733 113.438 7.72867 113.438 7.15ZM119.371 1.116C120.295 1.116 121.041 1.37733 121.611 1.9C122.18 2.42267 122.465 3.12267 122.465 4C122.465 4.98 122.161 5.708 121.555 6.184C120.948 6.65067 120.127 6.884 119.091 6.884L119.049 8.214H117.943L117.887 6.002H118.293C119.217 6.002 119.94 5.862 120.463 5.582C120.985 5.302 121.247 4.77467 121.247 4C121.247 3.44 121.079 2.99667 120.743 2.67C120.407 2.34333 119.954 2.18 119.385 2.18C118.806 2.18 118.349 2.33867 118.013 2.656C117.686 2.964 117.523 3.38867 117.523 3.93H116.319C116.319 3.37 116.445 2.88 116.697 2.46C116.949 2.03067 117.303 1.69933 117.761 1.466C118.227 1.23267 118.764 1.116 119.371 1.116ZM118.489 11.084C118.246 11.084 118.041 11 117.873 10.832C117.705 10.664 117.621 10.4587 117.621 10.216C117.621 9.97333 117.705 9.768 117.873 9.6C118.041 9.432 118.246 9.348 118.489 9.348C118.722 9.348 118.918 9.432 119.077 9.6C119.245 9.768 119.329 9.97333 119.329 10.216C119.329 10.4587 119.245 10.664 119.077 10.832C118.918 11 118.722 11.084 118.489 11.084Z" fill="#1E2772"/>
<path d="M0 12.4H123.137V13.1H0V12.4Z" fill="#1E2772"/>
</svg>
