<svg width="410" height="84" viewBox="0 0 410 84" fill="none" xmlns="http://www.w3.org/2000/svg">
<rect y="34" width="410" height="50" rx="8" fill="#F1F3F6"/>
<rect x="360" y="34" width="50" height="50" rx="8" fill="#7001FD"/>
<path d="M2.688 8.032V11.76H6.752V12.96H2.688V16.8H7.232V18H1.232V6.832H7.232V8.032H2.688ZM19.9791 9.072C20.6618 9.072 21.2698 9.216 21.8031 9.504C22.3365 9.78133 22.7578 10.2027 23.0671 10.768C23.3765 11.3333 23.5311 12.0213 23.5311 12.832V18H22.0911V13.04C22.0911 12.1653 21.8725 11.4987 21.4351 11.04C21.0085 10.5707 20.4271 10.336 19.6911 10.336C18.9338 10.336 18.3311 10.5813 17.8831 11.072C17.4351 11.552 17.2111 12.2507 17.2111 13.168V18H15.7711V13.04C15.7711 12.1653 15.5525 11.4987 15.1151 11.04C14.6885 10.5707 14.1071 10.336 13.3711 10.336C12.6138 10.336 12.0111 10.5813 11.5631 11.072C11.1151 11.552 10.8911 12.2507 10.8911 13.168V18H9.43513V9.232H10.8911V10.496C11.1791 10.0373 11.5631 9.68533 12.0431 9.44C12.5338 9.19467 13.0725 9.072 13.6591 9.072C14.3951 9.072 15.0458 9.23733 15.6111 9.568C16.1765 9.89867 16.5978 10.384 16.8751 11.024C17.1205 10.4053 17.5258 9.92533 18.0911 9.584C18.6565 9.24267 19.2858 9.072 19.9791 9.072ZM25.3755 13.584C25.3755 12.688 25.5568 11.904 25.9195 11.232C26.2822 10.5493 26.7782 10.0213 27.4075 9.648C28.0475 9.27467 28.7568 9.088 29.5355 9.088C30.3035 9.088 30.9702 9.25333 31.5355 9.584C32.1008 9.91467 32.5222 10.3307 32.7995 10.832V9.232H34.2715V18H32.7995V16.368C32.5115 16.88 32.0795 17.3067 31.5035 17.648C30.9382 17.9787 30.2768 18.144 29.5195 18.144C28.7408 18.144 28.0368 17.952 27.4075 17.568C26.7782 17.184 26.2822 16.6453 25.9195 15.952C25.5568 15.2587 25.3755 14.4693 25.3755 13.584ZM32.7995 13.6C32.7995 12.9387 32.6662 12.3627 32.3995 11.872C32.1328 11.3813 31.7702 11.008 31.3115 10.752C30.8635 10.4853 30.3675 10.352 29.8235 10.352C29.2795 10.352 28.7835 10.48 28.3355 10.736C27.8875 10.992 27.5302 11.3653 27.2635 11.856C26.9968 12.3467 26.8635 12.9227 26.8635 13.584C26.8635 14.256 26.9968 14.8427 27.2635 15.344C27.5302 15.8347 27.8875 16.2133 28.3355 16.48C28.7835 16.736 29.2795 16.864 29.8235 16.864C30.3675 16.864 30.8635 16.736 31.3115 16.48C31.7702 16.2133 32.1328 15.8347 32.3995 15.344C32.6662 14.8427 32.7995 14.2613 32.7995 13.6ZM37.484 7.808C37.2067 7.808 36.972 7.712 36.78 7.52C36.588 7.328 36.492 7.09333 36.492 6.816C36.492 6.53867 36.588 6.304 36.78 6.112C36.972 5.92 37.2067 5.824 37.484 5.824C37.7507 5.824 37.9747 5.92 38.156 6.112C38.348 6.304 38.444 6.53867 38.444 6.816C38.444 7.09333 38.348 7.328 38.156 7.52C37.9747 7.712 37.7507 7.808 37.484 7.808ZM38.188 9.232V18H36.732V9.232H38.188ZM42.1255 6.16V18H40.6695V6.16H42.1255ZM55.4646 15.52H50.6006L49.7046 18H48.1686L52.2006 6.912H53.8806L57.8966 18H56.3606L55.4646 15.52ZM55.0486 14.336L53.0326 8.704L51.0166 14.336H55.0486ZM59.1099 13.584C59.1099 12.688 59.2912 11.904 59.6539 11.232C60.0165 10.5493 60.5125 10.0213 61.1419 9.648C61.7819 9.27467 62.4965 9.088 63.2859 9.088C63.9685 9.088 64.6032 9.248 65.1899 9.568C65.7765 9.87733 66.2245 10.288 66.5339 10.8V6.16H68.0059V18H66.5339V16.352C66.2459 16.8747 65.8192 17.3067 65.2539 17.648C64.6885 17.9787 64.0272 18.144 63.2699 18.144C62.4912 18.144 61.7819 17.952 61.1419 17.568C60.5125 17.184 60.0165 16.6453 59.6539 15.952C59.2912 15.2587 59.1099 14.4693 59.1099 13.584ZM66.5339 13.6C66.5339 12.9387 66.4005 12.3627 66.1339 11.872C65.8672 11.3813 65.5045 11.008 65.0459 10.752C64.5979 10.4853 64.1019 10.352 63.5579 10.352C63.0139 10.352 62.5179 10.48 62.0699 10.736C61.6219 10.992 61.2645 11.3653 60.9979 11.856C60.7312 12.3467 60.5979 12.9227 60.5979 13.584C60.5979 14.256 60.7312 14.8427 60.9979 15.344C61.2645 15.8347 61.6219 16.2133 62.0699 16.48C62.5179 16.736 63.0139 16.864 63.5579 16.864C64.1019 16.864 64.5979 16.736 65.0459 16.48C65.5045 16.2133 65.8672 15.8347 66.1339 15.344C66.4005 14.8427 66.5339 14.2613 66.5339 13.6ZM69.9224 13.584C69.9224 12.688 70.1037 11.904 70.4664 11.232C70.829 10.5493 71.325 10.0213 71.9544 9.648C72.5944 9.27467 73.309 9.088 74.0984 9.088C74.781 9.088 75.4157 9.248 76.0024 9.568C76.589 9.87733 77.037 10.288 77.3464 10.8V6.16H78.8184V18H77.3464V16.352C77.0584 16.8747 76.6317 17.3067 76.0664 17.648C75.501 17.9787 74.8397 18.144 74.0824 18.144C73.3037 18.144 72.5944 17.952 71.9544 17.568C71.325 17.184 70.829 16.6453 70.4664 15.952C70.1037 15.2587 69.9224 14.4693 69.9224 13.584ZM77.3464 13.6C77.3464 12.9387 77.213 12.3627 76.9464 11.872C76.6797 11.3813 76.317 11.008 75.8584 10.752C75.4104 10.4853 74.9144 10.352 74.3704 10.352C73.8264 10.352 73.3304 10.48 72.8824 10.736C72.4344 10.992 72.077 11.3653 71.8104 11.856C71.5437 12.3467 71.4104 12.9227 71.4104 13.584C71.4104 14.256 71.5437 14.8427 71.8104 15.344C72.077 15.8347 72.4344 16.2133 72.8824 16.48C73.3304 16.736 73.8264 16.864 74.3704 16.864C74.9144 16.864 75.4104 16.736 75.8584 16.48C76.317 16.2133 76.6797 15.8347 76.9464 15.344C77.213 14.8427 77.3464 14.2613 77.3464 13.6ZM82.7349 10.656C82.9909 10.1547 83.3535 9.76533 83.8229 9.488C84.3029 9.21067 84.8842 9.072 85.5669 9.072V10.576H85.1829C83.5509 10.576 82.7349 11.4613 82.7349 13.232V18H81.2789V9.232H82.7349V10.656ZM95.2476 13.28C95.2476 13.5573 95.2316 13.8507 95.1996 14.16H88.1916C88.245 15.024 88.5383 15.7013 89.0716 16.192C89.6156 16.672 90.2716 16.912 91.0396 16.912C91.669 16.912 92.1916 16.768 92.6076 16.48C93.0343 16.1813 93.333 15.7867 93.5036 15.296H95.0716C94.837 16.1387 94.3676 16.8267 93.6636 17.36C92.9596 17.8827 92.085 18.144 91.0396 18.144C90.2076 18.144 89.461 17.9573 88.7996 17.584C88.149 17.2107 87.637 16.6827 87.2636 16C86.8903 15.3067 86.7036 14.5067 86.7036 13.6C86.7036 12.6933 86.885 11.8987 87.2476 11.216C87.6103 10.5333 88.117 10.0107 88.7676 9.648C89.429 9.27467 90.1863 9.088 91.0396 9.088C91.8716 9.088 92.6076 9.26933 93.2476 9.632C93.8876 9.99467 94.3783 10.496 94.7196 11.136C95.0716 11.7653 95.2476 12.48 95.2476 13.28ZM93.7436 12.976C93.7436 12.4213 93.621 11.9467 93.3756 11.552C93.1303 11.1467 92.7943 10.8427 92.3676 10.64C91.9516 10.4267 91.4876 10.32 90.9756 10.32C90.2396 10.32 89.6103 10.5547 89.0876 11.024C88.5756 11.4933 88.2823 12.144 88.2076 12.976H93.7436ZM100.274 18.144C99.6015 18.144 98.9988 18.032 98.4655 17.808C97.9322 17.5733 97.5108 17.2533 97.2015 16.848C96.8922 16.432 96.7215 15.9573 96.6895 15.424H98.1935C98.2362 15.8613 98.4388 16.2187 98.8015 16.496C99.1748 16.7733 99.6602 16.912 100.258 16.912C100.812 16.912 101.25 16.7893 101.57 16.544C101.89 16.2987 102.05 15.9893 102.05 15.616C102.05 15.232 101.879 14.9493 101.538 14.768C101.196 14.576 100.668 14.3893 99.9535 14.208C99.3028 14.0373 98.7695 13.8667 98.3535 13.696C97.9482 13.5147 97.5962 13.2533 97.2975 12.912C97.0095 12.56 96.8655 12.1013 96.8655 11.536C96.8655 11.088 96.9988 10.6773 97.2655 10.304C97.5322 9.93067 97.9108 9.63733 98.4015 9.424C98.8922 9.2 99.4522 9.088 100.082 9.088C101.052 9.088 101.836 9.33333 102.434 9.824C103.031 10.3147 103.351 10.9867 103.394 11.84H101.938C101.906 11.3813 101.719 11.0133 101.378 10.736C101.047 10.4587 100.599 10.32 100.034 10.32C99.5108 10.32 99.0948 10.432 98.7855 10.656C98.4762 10.88 98.3215 11.1733 98.3215 11.536C98.3215 11.824 98.4122 12.064 98.5935 12.256C98.7855 12.4373 99.0202 12.5867 99.2975 12.704C99.5855 12.8107 99.9802 12.9333 100.482 13.072C101.111 13.2427 101.623 13.4133 102.018 13.584C102.412 13.744 102.748 13.9893 103.026 14.32C103.314 14.6507 103.463 15.0827 103.474 15.616C103.474 16.096 103.34 16.528 103.074 16.912C102.807 17.296 102.428 17.6 101.938 17.824C101.458 18.0373 100.903 18.144 100.274 18.144ZM108.633 18.144C107.961 18.144 107.358 18.032 106.825 17.808C106.292 17.5733 105.87 17.2533 105.561 16.848C105.252 16.432 105.081 15.9573 105.049 15.424H106.553C106.596 15.8613 106.798 16.2187 107.161 16.496C107.534 16.7733 108.02 16.912 108.617 16.912C109.172 16.912 109.609 16.7893 109.929 16.544C110.249 16.2987 110.409 15.9893 110.409 15.616C110.409 15.232 110.238 14.9493 109.897 14.768C109.556 14.576 109.028 14.3893 108.313 14.208C107.662 14.0373 107.129 13.8667 106.713 13.696C106.308 13.5147 105.956 13.2533 105.657 12.912C105.369 12.56 105.225 12.1013 105.225 11.536C105.225 11.088 105.358 10.6773 105.625 10.304C105.892 9.93067 106.27 9.63733 106.761 9.424C107.252 9.2 107.812 9.088 108.441 9.088C109.412 9.088 110.196 9.33333 110.793 9.824C111.39 10.3147 111.71 10.9867 111.753 11.84H110.297C110.265 11.3813 110.078 11.0133 109.737 10.736C109.406 10.4587 108.958 10.32 108.393 10.32C107.87 10.32 107.454 10.432 107.145 10.656C106.836 10.88 106.681 11.1733 106.681 11.536C106.681 11.824 106.772 12.064 106.953 12.256C107.145 12.4373 107.38 12.5867 107.657 12.704C107.945 12.8107 108.34 12.9333 108.841 13.072C109.47 13.2427 109.982 13.4133 110.377 13.584C110.772 13.744 111.108 13.9893 111.385 14.32C111.673 14.6507 111.822 15.0827 111.833 15.616C111.833 16.096 111.7 16.528 111.433 16.912C111.166 17.296 110.788 17.6 110.297 17.824C109.817 18.0373 109.262 18.144 108.633 18.144Z" fill="#555555"/>
<path d="M19.688 60.584C19.688 59.688 19.8693 58.904 20.232 58.232C20.5947 57.5493 21.0907 57.0213 21.72 56.648C22.36 56.2747 23.0693 56.088 23.848 56.088C24.616 56.088 25.2827 56.2533 25.848 56.584C26.4133 56.9147 26.8347 57.3307 27.112 57.832V56.232H28.584V65H27.112V63.368C26.824 63.88 26.392 64.3067 25.816 64.648C25.2507 64.9787 24.5893 65.144 23.832 65.144C23.0533 65.144 22.3493 64.952 21.72 64.568C21.0907 64.184 20.5947 63.6453 20.232 62.952C19.8693 62.2587 19.688 61.4693 19.688 60.584ZM27.112 60.6C27.112 59.9387 26.9787 59.3627 26.712 58.872C26.4453 58.3813 26.0827 58.008 25.624 57.752C25.176 57.4853 24.68 57.352 24.136 57.352C23.592 57.352 23.096 57.48 22.648 57.736C22.2 57.992 21.8427 58.3653 21.576 58.856C21.3093 59.3467 21.176 59.9227 21.176 60.584C21.176 61.256 21.3093 61.8427 21.576 62.344C21.8427 62.8347 22.2 63.2133 22.648 63.48C23.096 63.736 23.592 63.864 24.136 63.864C24.68 63.864 25.176 63.736 25.624 63.48C26.0827 63.2133 26.4453 62.8347 26.712 62.344C26.9787 61.8427 27.112 61.2613 27.112 60.6ZM32.5005 53.16V65H31.0445V53.16H32.5005ZM42.982 60.28C42.982 60.5573 42.966 60.8507 42.934 61.16H35.926C35.9793 62.024 36.2727 62.7013 36.806 63.192C37.35 63.672 38.006 63.912 38.774 63.912C39.4033 63.912 39.926 63.768 40.342 63.48C40.7687 63.1813 41.0673 62.7867 41.238 62.296H42.806C42.5713 63.1387 42.102 63.8267 41.398 64.36C40.694 64.8827 39.8193 65.144 38.774 65.144C37.942 65.144 37.1953 64.9573 36.534 64.584C35.8833 64.2107 35.3713 63.6827 34.998 63C34.6247 62.3067 34.438 61.5067 34.438 60.6C34.438 59.6933 34.6193 58.8987 34.982 58.216C35.3447 57.5333 35.8513 57.0107 36.502 56.648C37.1633 56.2747 37.9207 56.088 38.774 56.088C39.606 56.088 40.342 56.2693 40.982 56.632C41.622 56.9947 42.1127 57.496 42.454 58.136C42.806 58.7653 42.982 59.48 42.982 60.28ZM41.478 59.976C41.478 59.4213 41.3553 58.9467 41.11 58.552C40.8647 58.1467 40.5287 57.8427 40.102 57.64C39.686 57.4267 39.222 57.32 38.71 57.32C37.974 57.32 37.3447 57.5547 36.822 58.024C36.31 58.4933 36.0167 59.144 35.942 59.976H41.478ZM49.4799 65L47.3999 61.736L45.3999 65H43.8799L46.7119 60.648L43.8799 56.232H45.5279L47.6079 59.48L49.5919 56.232H51.1119L48.2959 60.568L51.1279 65H49.4799ZM60.5601 54.744C61.7441 54.744 62.7735 54.968 63.6481 55.416C64.5228 55.864 65.1948 56.4933 65.6641 57.304C66.1335 58.104 66.3681 59.032 66.3681 60.088C66.3681 60.9307 66.2295 61.7413 65.9521 62.52C65.6748 63.288 65.2695 63.912 64.7361 64.392C64.2135 64.872 63.6001 65.112 62.8961 65.112C62.3628 65.112 61.9521 64.9787 61.6641 64.712C61.3761 64.4453 61.2108 64.0827 61.1681 63.624C60.8375 64.0827 60.4161 64.4453 59.9041 64.712C59.4028 64.9787 58.8695 65.112 58.3041 65.112C57.4935 65.112 56.8535 64.8667 56.3841 64.376C55.9255 63.8747 55.6961 63.2027 55.6961 62.36C55.6961 61.56 55.8615 60.8133 56.1921 60.12C56.5335 59.4267 57.0028 58.872 57.6001 58.456C58.1975 58.0293 58.8748 57.816 59.6321 57.816C60.6455 57.816 61.3281 58.2 61.6801 58.968L61.8561 57.976H63.1201L62.3201 62.6C62.2881 62.8027 62.2721 62.9893 62.2721 63.16C62.2721 63.8 62.5548 64.12 63.1201 64.12C63.5468 64.12 63.9148 63.9173 64.2241 63.512C64.5441 63.1067 64.7841 62.6 64.9441 61.992C65.1041 61.3733 65.1841 60.7653 65.1841 60.168C65.1841 58.7707 64.7628 57.688 63.9201 56.92C63.0881 56.152 61.9095 55.768 60.3841 55.768C59.1148 55.768 57.9681 56.0773 56.9441 56.696C55.9308 57.304 55.1361 58.1413 54.5601 59.208C53.9841 60.2747 53.6961 61.4533 53.6961 62.744C53.6855 64.152 54.1068 65.2347 54.9601 65.992C55.8135 66.76 56.9975 67.144 58.5121 67.144C59.5148 67.144 60.4001 66.9627 61.1681 66.6L61.3601 67.592C60.4108 67.9867 59.3655 68.184 58.2241 68.184C57.0828 68.184 56.0748 67.9653 55.2001 67.528C54.3361 67.1013 53.6641 66.4827 53.1841 65.672C52.7148 64.872 52.4801 63.9387 52.4801 62.872C52.4801 61.368 52.8268 59.9973 53.5201 58.76C54.2135 57.512 55.1735 56.5307 56.4001 55.816C57.6375 55.1013 59.0241 54.744 60.5601 54.744ZM58.7361 63.976C59.2161 63.976 59.6588 63.8373 60.0641 63.56C60.4695 63.272 60.7895 62.888 61.0241 62.408C61.2588 61.9173 61.3761 61.384 61.3761 60.808C61.3761 60.2533 61.2215 59.8053 60.9121 59.464C60.6135 59.112 60.1868 58.936 59.6321 58.936C59.1201 58.936 58.6668 59.0907 58.2721 59.4C57.8881 59.6987 57.5895 60.0987 57.3761 60.6C57.1628 61.0907 57.0561 61.6027 57.0561 62.136C57.0561 62.7013 57.2001 63.1493 57.4881 63.48C57.7761 63.8107 58.1921 63.976 58.7361 63.976ZM76.7633 60.28C76.7633 60.5573 76.7473 60.8507 76.7153 61.16H69.7073C69.7606 62.024 70.0539 62.7013 70.5873 63.192C71.1313 63.672 71.7873 63.912 72.5553 63.912C73.1846 63.912 73.7073 63.768 74.1233 63.48C74.5499 63.1813 74.8486 62.7867 75.0193 62.296H76.5873C76.3526 63.1387 75.8833 63.8267 75.1793 64.36C74.4753 64.8827 73.6006 65.144 72.5553 65.144C71.7233 65.144 70.9766 64.9573 70.3153 64.584C69.6646 64.2107 69.1526 63.6827 68.7793 63C68.4059 62.3067 68.2193 61.5067 68.2193 60.6C68.2193 59.6933 68.4006 58.8987 68.7633 58.216C69.1259 57.5333 69.6326 57.0107 70.2833 56.648C70.9446 56.2747 71.7019 56.088 72.5553 56.088C73.3873 56.088 74.1233 56.2693 74.7633 56.632C75.4033 56.9947 75.8939 57.496 76.2353 58.136C76.5873 58.7653 76.7633 59.48 76.7633 60.28ZM75.2593 59.976C75.2593 59.4213 75.1366 58.9467 74.8913 58.552C74.6459 58.1467 74.3099 57.8427 73.8833 57.64C73.4673 57.4267 73.0033 57.32 72.4913 57.32C71.7553 57.32 71.1259 57.5547 70.6033 58.024C70.0913 58.4933 69.7979 59.144 69.7233 59.976H75.2593ZM89.2291 56.072C89.9118 56.072 90.5198 56.216 91.0531 56.504C91.5865 56.7813 92.0078 57.2027 92.3171 57.768C92.6265 58.3333 92.7811 59.0213 92.7811 59.832V65H91.3411V60.04C91.3411 59.1653 91.1225 58.4987 90.6851 58.04C90.2585 57.5707 89.6771 57.336 88.9411 57.336C88.1838 57.336 87.5811 57.5813 87.1331 58.072C86.6851 58.552 86.4611 59.2507 86.4611 60.168V65H85.0211V60.04C85.0211 59.1653 84.8025 58.4987 84.3651 58.04C83.9385 57.5707 83.3571 57.336 82.6211 57.336C81.8638 57.336 81.2611 57.5813 80.8131 58.072C80.3651 58.552 80.1411 59.2507 80.1411 60.168V65H78.6851V56.232H80.1411V57.496C80.4291 57.0373 80.8131 56.6853 81.2931 56.44C81.7838 56.1947 82.3225 56.072 82.9091 56.072C83.6451 56.072 84.2958 56.2373 84.8611 56.568C85.4265 56.8987 85.8478 57.384 86.1251 58.024C86.3705 57.4053 86.7758 56.9253 87.3411 56.584C87.9065 56.2427 88.5358 56.072 89.2291 56.072ZM94.6255 60.584C94.6255 59.688 94.8068 58.904 95.1695 58.232C95.5322 57.5493 96.0282 57.0213 96.6575 56.648C97.2975 56.2747 98.0068 56.088 98.7855 56.088C99.5535 56.088 100.22 56.2533 100.786 56.584C101.351 56.9147 101.772 57.3307 102.05 57.832V56.232H103.522V65H102.05V63.368C101.762 63.88 101.33 64.3067 100.754 64.648C100.188 64.9787 99.5268 65.144 98.7695 65.144C97.9908 65.144 97.2868 64.952 96.6575 64.568C96.0282 64.184 95.5322 63.6453 95.1695 62.952C94.8068 62.2587 94.6255 61.4693 94.6255 60.584ZM102.05 60.6C102.05 59.9387 101.916 59.3627 101.65 58.872C101.383 58.3813 101.02 58.008 100.562 57.752C100.114 57.4853 99.6175 57.352 99.0735 57.352C98.5295 57.352 98.0335 57.48 97.5855 57.736C97.1375 57.992 96.7802 58.3653 96.5135 58.856C96.2468 59.3467 96.1135 59.9227 96.1135 60.584C96.1135 61.256 96.2468 61.8427 96.5135 62.344C96.7802 62.8347 97.1375 63.2133 97.5855 63.48C98.0335 63.736 98.5295 63.864 99.0735 63.864C99.6175 63.864 100.114 63.736 100.562 63.48C101.02 63.2133 101.383 62.8347 101.65 62.344C101.916 61.8427 102.05 61.2613 102.05 60.6ZM106.734 54.808C106.457 54.808 106.222 54.712 106.03 54.52C105.838 54.328 105.742 54.0933 105.742 53.816C105.742 53.5387 105.838 53.304 106.03 53.112C106.222 52.92 106.457 52.824 106.734 52.824C107.001 52.824 107.225 52.92 107.406 53.112C107.598 53.304 107.694 53.5387 107.694 53.816C107.694 54.0933 107.598 54.328 107.406 54.52C107.225 54.712 107.001 54.808 106.734 54.808ZM107.438 56.232V65H105.982V56.232H107.438ZM111.376 53.16V65H109.92V53.16H111.376ZM114.321 65.096C114.044 65.096 113.809 65 113.617 64.808C113.425 64.616 113.329 64.3813 113.329 64.104C113.329 63.8267 113.425 63.592 113.617 63.4C113.809 63.208 114.044 63.112 114.321 63.112C114.588 63.112 114.812 63.208 114.993 63.4C115.185 63.592 115.281 63.8267 115.281 64.104C115.281 64.3813 115.185 64.616 114.993 64.808C114.812 65 114.588 65.096 114.321 65.096ZM116.672 60.6C116.672 59.6933 116.854 58.904 117.216 58.232C117.579 57.5493 118.08 57.0213 118.72 56.648C119.371 56.2747 120.112 56.088 120.944 56.088C122.022 56.088 122.907 56.3493 123.6 56.872C124.304 57.3947 124.768 58.12 124.992 59.048H123.424C123.275 58.5147 122.982 58.0933 122.544 57.784C122.118 57.4747 121.584 57.32 120.944 57.32C120.112 57.32 119.44 57.608 118.928 58.184C118.416 58.7493 118.16 59.5547 118.16 60.6C118.16 61.656 118.416 62.472 118.928 63.048C119.44 63.624 120.112 63.912 120.944 63.912C121.584 63.912 122.118 63.7627 122.544 63.464C122.971 63.1653 123.264 62.7387 123.424 62.184H124.992C124.758 63.08 124.288 63.8 123.584 64.344C122.88 64.8773 122 65.144 120.944 65.144C120.112 65.144 119.371 64.9573 118.72 64.584C118.08 64.2107 117.579 63.6827 117.216 63C116.854 62.3173 116.672 61.5173 116.672 60.6ZM130.759 65.144C129.938 65.144 129.191 64.9573 128.519 64.584C127.858 64.2107 127.335 63.6827 126.951 63C126.578 62.3067 126.391 61.5067 126.391 60.6C126.391 59.704 126.583 58.9147 126.967 58.232C127.362 57.5387 127.895 57.0107 128.567 56.648C129.239 56.2747 129.991 56.088 130.823 56.088C131.655 56.088 132.407 56.2747 133.079 56.648C133.751 57.0107 134.279 57.5333 134.663 58.216C135.058 58.8987 135.255 59.6933 135.255 60.6C135.255 61.5067 135.052 62.3067 134.647 63C134.252 63.6827 133.714 64.2107 133.031 64.584C132.348 64.9573 131.591 65.144 130.759 65.144ZM130.759 63.864C131.282 63.864 131.772 63.7413 132.231 63.496C132.69 63.2507 133.058 62.8827 133.335 62.392C133.623 61.9013 133.767 61.304 133.767 60.6C133.767 59.896 133.628 59.2987 133.351 58.808C133.074 58.3173 132.711 57.9547 132.263 57.72C131.815 57.4747 131.33 57.352 130.807 57.352C130.274 57.352 129.783 57.4747 129.335 57.72C128.898 57.9547 128.546 58.3173 128.279 58.808C128.012 59.2987 127.879 59.896 127.879 60.6C127.879 61.3147 128.007 61.9173 128.263 62.408C128.53 62.8987 128.882 63.2667 129.319 63.512C129.756 63.7467 130.236 63.864 130.759 63.864ZM147.714 56.072C148.396 56.072 149.004 56.216 149.538 56.504C150.071 56.7813 150.492 57.2027 150.802 57.768C151.111 58.3333 151.266 59.0213 151.266 59.832V65H149.826V60.04C149.826 59.1653 149.607 58.4987 149.17 58.04C148.743 57.5707 148.162 57.336 147.426 57.336C146.668 57.336 146.066 57.5813 145.618 58.072C145.17 58.552 144.946 59.2507 144.946 60.168V65H143.506V60.04C143.506 59.1653 143.287 58.4987 142.85 58.04C142.423 57.5707 141.842 57.336 141.106 57.336C140.348 57.336 139.746 57.5813 139.298 58.072C138.85 58.552 138.626 59.2507 138.626 60.168V65H137.17V56.232H138.626V57.496C138.914 57.0373 139.298 56.6853 139.778 56.44C140.268 56.1947 140.807 56.072 141.394 56.072C142.13 56.072 142.78 56.2373 143.346 56.568C143.911 56.8987 144.332 57.384 144.61 58.024C144.855 57.4053 145.26 56.9253 145.826 56.584C146.391 56.2427 147.02 56.072 147.714 56.072Z" fill="#555555"/>
<g clip-path="url(#clip0_302_385)">
<path d="M376 50H394C394.265 50 394.52 50.1054 394.707 50.2929C394.895 50.4804 395 50.7348 395 51V67C395 67.2652 394.895 67.5196 394.707 67.7071C394.52 67.8946 394.265 68 394 68H376C375.735 68 375.48 67.8946 375.293 67.7071C375.105 67.5196 375 67.2652 375 67V51C375 50.7348 375.105 50.4804 375.293 50.2929C375.48 50.1054 375.735 50 376 50ZM393 54.238L385.072 61.338L377 54.216V66H393V54.238ZM377.511 52L385.061 58.662L392.502 52H377.511Z" fill="white"/>
</g>
<defs>
<clipPath id="clip0_302_385">
<rect width="24" height="24" fill="white" transform="translate(373 47)"/>
</clipPath>
</defs>
</svg>
