<svg width="434" height="74" viewBox="0 0 434 74" fill="none" xmlns="http://www.w3.org/2000/svg">
<g filter="url(#filter0_d_302_405)">
<rect x="12.5" y="4.5" width="409" height="49" rx="7.5" stroke="#7001FD" shape-rendering="crispEdges"/>
</g>
<path d="M174.296 35.112C173.517 35.112 172.813 34.9787 172.184 34.712C171.565 34.4453 171.075 34.0613 170.712 33.56C170.349 33.0587 170.163 32.4667 170.152 31.784H172.552C172.584 32.2427 172.744 32.6053 173.032 32.872C173.331 33.1387 173.736 33.272 174.248 33.272C174.771 33.272 175.181 33.1493 175.48 32.904C175.779 32.648 175.928 32.3173 175.928 31.912C175.928 31.5813 175.827 31.3093 175.624 31.096C175.421 30.8827 175.165 30.7173 174.856 30.6C174.557 30.472 174.141 30.3333 173.608 30.184C172.883 29.9707 172.291 29.7627 171.832 29.56C171.384 29.3467 170.995 29.032 170.664 28.616C170.344 28.1893 170.184 27.624 170.184 26.92C170.184 26.2587 170.349 25.6827 170.68 25.192C171.011 24.7013 171.475 24.328 172.072 24.072C172.669 23.8053 173.352 23.672 174.12 23.672C175.272 23.672 176.205 23.9547 176.92 24.52C177.645 25.0747 178.045 25.8533 178.12 26.856H175.656C175.635 26.472 175.469 26.1573 175.16 25.912C174.861 25.656 174.461 25.528 173.96 25.528C173.523 25.528 173.171 25.64 172.904 25.864C172.648 26.088 172.52 26.4133 172.52 26.84C172.52 27.1387 172.616 27.3893 172.808 27.592C173.011 27.784 173.256 27.944 173.544 28.072C173.843 28.1893 174.259 28.328 174.792 28.488C175.517 28.7013 176.109 28.9147 176.568 29.128C177.027 29.3413 177.421 29.6613 177.752 30.088C178.083 30.5147 178.248 31.0747 178.248 31.768C178.248 32.3653 178.093 32.92 177.784 33.432C177.475 33.944 177.021 34.3547 176.424 34.664C175.827 34.9627 175.117 35.112 174.296 35.112ZM181.326 25.08C180.931 25.08 180.601 24.9573 180.334 24.712C180.078 24.456 179.95 24.1413 179.95 23.768C179.95 23.3947 180.078 23.0853 180.334 22.84C180.601 22.584 180.931 22.456 181.326 22.456C181.721 22.456 182.046 22.584 182.302 22.84C182.569 23.0853 182.702 23.3947 182.702 23.768C182.702 24.1413 182.569 24.456 182.302 24.712C182.046 24.9573 181.721 25.08 181.326 25.08ZM182.43 26.136V35H180.19V26.136H182.43ZM188.115 25.992C188.776 25.992 189.358 26.1253 189.859 26.392C190.36 26.648 190.755 26.984 191.043 27.4V26.136H193.299V35.064C193.299 35.8853 193.134 36.616 192.803 37.256C192.472 37.9067 191.976 38.4187 191.315 38.792C190.654 39.176 189.854 39.368 188.915 39.368C187.656 39.368 186.622 39.0747 185.811 38.488C185.011 37.9013 184.558 37.1013 184.451 36.088H186.675C186.792 36.4933 187.043 36.8133 187.427 37.048C187.822 37.2933 188.296 37.416 188.851 37.416C189.502 37.416 190.03 37.2187 190.435 36.824C190.84 36.44 191.043 35.8533 191.043 35.064V33.688C190.755 34.104 190.355 34.4507 189.843 34.728C189.342 35.0053 188.766 35.144 188.115 35.144C187.368 35.144 186.686 34.952 186.067 34.568C185.448 34.184 184.958 33.6453 184.595 32.952C184.243 32.248 184.067 31.4427 184.067 30.536C184.067 29.64 184.243 28.8453 184.595 28.152C184.958 27.4587 185.443 26.9253 186.051 26.552C186.67 26.1787 187.358 25.992 188.115 25.992ZM191.043 30.568C191.043 30.024 190.936 29.56 190.723 29.176C190.51 28.7813 190.222 28.4827 189.859 28.28C189.496 28.0667 189.107 27.96 188.691 27.96C188.275 27.96 187.891 28.0613 187.539 28.264C187.187 28.4667 186.899 28.7653 186.675 29.16C186.462 29.544 186.355 30.0027 186.355 30.536C186.355 31.0693 186.462 31.5387 186.675 31.944C186.899 32.3387 187.187 32.6427 187.539 32.856C187.902 33.0693 188.286 33.176 188.691 33.176C189.107 33.176 189.496 33.0747 189.859 32.872C190.222 32.6587 190.51 32.36 190.723 31.976C190.936 31.5813 191.043 31.112 191.043 30.568ZM200.399 26.008C201.455 26.008 202.308 26.344 202.959 27.016C203.609 27.6773 203.935 28.6053 203.935 29.8V35H201.695V30.104C201.695 29.4 201.519 28.8613 201.167 28.488C200.815 28.104 200.335 27.912 199.727 27.912C199.108 27.912 198.617 28.104 198.255 28.488C197.903 28.8613 197.727 29.4 197.727 30.104V35H195.487V26.136H197.727V27.24C198.025 26.856 198.404 26.5573 198.863 26.344C199.332 26.12 199.844 26.008 200.399 26.008ZM214.433 26.136V35H212.177V33.88C211.889 34.264 211.51 34.568 211.041 34.792C210.582 35.0053 210.081 35.112 209.537 35.112C208.844 35.112 208.23 34.968 207.697 34.68C207.164 34.3813 206.742 33.9493 206.433 33.384C206.134 32.808 205.985 32.1253 205.985 31.336V26.136H208.225V31.016C208.225 31.72 208.401 32.264 208.753 32.648C209.105 33.0213 209.585 33.208 210.193 33.208C210.812 33.208 211.297 33.0213 211.649 32.648C212.001 32.264 212.177 31.72 212.177 31.016V26.136H214.433ZM218.883 27.416C219.171 27.0107 219.566 26.6747 220.067 26.408C220.579 26.1307 221.16 25.992 221.811 25.992C222.568 25.992 223.251 26.1787 223.859 26.552C224.478 26.9253 224.963 27.4587 225.315 28.152C225.678 28.8347 225.859 29.6293 225.859 30.536C225.859 31.4427 225.678 32.248 225.315 32.952C224.963 33.6453 224.478 34.184 223.859 34.568C223.251 34.952 222.568 35.144 221.811 35.144C221.16 35.144 220.584 35.0107 220.083 34.744C219.592 34.4773 219.192 34.1413 218.883 33.736V39.224H216.643V26.136H218.883V27.416ZM223.571 30.536C223.571 30.0027 223.459 29.544 223.235 29.16C223.022 28.7653 222.734 28.4667 222.371 28.264C222.019 28.0613 221.635 27.96 221.219 27.96C220.814 27.96 220.43 28.0667 220.067 28.28C219.715 28.4827 219.427 28.7813 219.203 29.176C218.99 29.5707 218.883 30.0347 218.883 30.568C218.883 31.1013 218.99 31.5653 219.203 31.96C219.427 32.3547 219.715 32.6587 220.067 32.872C220.43 33.0747 220.814 33.176 221.219 33.176C221.635 33.176 222.019 33.0693 222.371 32.856C222.734 32.6427 223.022 32.3387 223.235 31.944C223.459 31.5493 223.571 31.08 223.571 30.536ZM240.851 35H238.611L233.539 27.336V35H231.299V23.816H233.539L238.611 31.496V23.816H240.851V35ZM247.001 35.144C246.148 35.144 245.38 34.9573 244.697 34.584C244.014 34.2 243.476 33.6613 243.081 32.968C242.697 32.2747 242.505 31.4747 242.505 30.568C242.505 29.6613 242.702 28.8613 243.097 28.168C243.502 27.4747 244.052 26.9413 244.745 26.568C245.438 26.184 246.212 25.992 247.065 25.992C247.918 25.992 248.692 26.184 249.385 26.568C250.078 26.9413 250.622 27.4747 251.017 28.168C251.422 28.8613 251.625 29.6613 251.625 30.568C251.625 31.4747 251.417 32.2747 251.001 32.968C250.596 33.6613 250.041 34.2 249.337 34.584C248.644 34.9573 247.865 35.144 247.001 35.144ZM247.001 33.192C247.406 33.192 247.785 33.096 248.137 32.904C248.5 32.7013 248.788 32.4027 249.001 32.008C249.214 31.6133 249.321 31.1333 249.321 30.568C249.321 29.7253 249.097 29.08 248.649 28.632C248.212 28.1733 247.673 27.944 247.033 27.944C246.393 27.944 245.854 28.1733 245.417 28.632C244.99 29.08 244.777 29.7253 244.777 30.568C244.777 31.4107 244.985 32.0613 245.401 32.52C245.828 32.968 246.361 33.192 247.001 33.192ZM265.556 26.136L262.964 35H260.548L258.932 28.808L257.316 35H254.884L252.276 26.136H254.548L256.116 32.888L257.812 26.136H260.18L261.844 32.872L263.412 26.136H265.556Z" fill="#7001FD"/>
<defs>
<filter id="filter0_d_302_405" x="0" y="0" width="434" height="74" filterUnits="userSpaceOnUse" color-interpolation-filters="sRGB">
<feFlood flood-opacity="0" result="BackgroundImageFix"/>
<feColorMatrix in="SourceAlpha" type="matrix" values="0 0 0 0 0 0 0 0 0 0 0 0 0 0 0 0 0 0 127 0" result="hardAlpha"/>
<feOffset dy="8"/>
<feGaussianBlur stdDeviation="6"/>
<feComposite in2="hardAlpha" operator="out"/>
<feColorMatrix type="matrix" values="0 0 0 0 0.992157 0 0 0 0 0.454902 0 0 0 0 0.00392157 0 0 0 0.3 0"/>
<feBlend mode="normal" in2="BackgroundImageFix" result="effect1_dropShadow_302_405"/>
<feBlend mode="normal" in="SourceGraphic" in2="effect1_dropShadow_302_405" result="shape"/>
</filter>
</defs>
</svg>
