<svg width="410" height="84" viewBox="0 0 410 84" fill="none" xmlns="http://www.w3.org/2000/svg">
<rect y="34" width="410" height="50" rx="8" fill="#F1F3F6"/>
<rect x="360" y="34" width="50" height="50" rx="8" fill="#7001FD"/>
<path d="M8.688 10.112C8.688 11.04 8.368 11.8133 7.728 12.432C7.09867 13.04 6.13333 13.344 4.832 13.344H2.688V18H1.232V6.848H4.832C6.09067 6.848 7.04533 7.152 7.696 7.76C8.35733 8.368 8.688 9.152 8.688 10.112ZM4.832 12.144C5.64267 12.144 6.24 11.968 6.624 11.616C7.008 11.264 7.2 10.7627 7.2 10.112C7.2 8.736 6.41067 8.048 4.832 8.048H2.688V12.144H4.832ZM9.95363 13.584C9.95363 12.688 10.135 11.904 10.4976 11.232C10.8603 10.5493 11.3563 10.0213 11.9856 9.648C12.6256 9.27467 13.335 9.088 14.1136 9.088C14.8816 9.088 15.5483 9.25333 16.1136 9.584C16.679 9.91467 17.1003 10.3307 17.3776 10.832V9.232H18.8496V18H17.3776V16.368C17.0896 16.88 16.6576 17.3067 16.0816 17.648C15.5163 17.9787 14.855 18.144 14.0976 18.144C13.319 18.144 12.615 17.952 11.9856 17.568C11.3563 17.184 10.8603 16.6453 10.4976 15.952C10.135 15.2587 9.95363 14.4693 9.95363 13.584ZM17.3776 13.6C17.3776 12.9387 17.2443 12.3627 16.9776 11.872C16.711 11.3813 16.3483 11.008 15.8896 10.752C15.4416 10.4853 14.9456 10.352 14.4016 10.352C13.8576 10.352 13.3616 10.48 12.9136 10.736C12.4656 10.992 12.1083 11.3653 11.8416 11.856C11.575 12.3467 11.4416 12.9227 11.4416 13.584C11.4416 14.256 11.575 14.8427 11.8416 15.344C12.1083 15.8347 12.4656 16.2133 12.9136 16.48C13.3616 16.736 13.8576 16.864 14.4016 16.864C14.9456 16.864 15.4416 16.736 15.8896 16.48C16.3483 16.2133 16.711 15.8347 16.9776 15.344C17.2443 14.8427 17.3776 14.2613 17.3776 13.6ZM24.4141 18.144C23.7421 18.144 23.1395 18.032 22.6061 17.808C22.0728 17.5733 21.6515 17.2533 21.3421 16.848C21.0328 16.432 20.8621 15.9573 20.8301 15.424H22.3341C22.3768 15.8613 22.5795 16.2187 22.9421 16.496C23.3155 16.7733 23.8008 16.912 24.3981 16.912C24.9528 16.912 25.3901 16.7893 25.7101 16.544C26.0301 16.2987 26.1901 15.9893 26.1901 15.616C26.1901 15.232 26.0195 14.9493 25.6781 14.768C25.3368 14.576 24.8088 14.3893 24.0941 14.208C23.4435 14.0373 22.9101 13.8667 22.4941 13.696C22.0888 13.5147 21.7368 13.2533 21.4381 12.912C21.1501 12.56 21.0061 12.1013 21.0061 11.536C21.0061 11.088 21.1395 10.6773 21.4061 10.304C21.6728 9.93067 22.0515 9.63733 22.5421 9.424C23.0328 9.2 23.5928 9.088 24.2221 9.088C25.1928 9.088 25.9768 9.33333 26.5741 9.824C27.1715 10.3147 27.4915 10.9867 27.5341 11.84H26.0781C26.0461 11.3813 25.8595 11.0133 25.5181 10.736C25.1875 10.4587 24.7395 10.32 24.1741 10.32C23.6515 10.32 23.2355 10.432 22.9261 10.656C22.6168 10.88 22.4621 11.1733 22.4621 11.536C22.4621 11.824 22.5528 12.064 22.7341 12.256C22.9261 12.4373 23.1608 12.5867 23.4381 12.704C23.7261 12.8107 24.1208 12.9333 24.6221 13.072C25.2515 13.2427 25.7635 13.4133 26.1581 13.584C26.5528 13.744 26.8888 13.9893 27.1661 14.32C27.4541 14.6507 27.6035 15.0827 27.6141 15.616C27.6141 16.096 27.4808 16.528 27.2141 16.912C26.9475 17.296 26.5688 17.6 26.0781 17.824C25.5981 18.0373 25.0435 18.144 24.4141 18.144ZM32.7735 18.144C32.1015 18.144 31.4988 18.032 30.9655 17.808C30.4322 17.5733 30.0108 17.2533 29.7015 16.848C29.3922 16.432 29.2215 15.9573 29.1895 15.424H30.6935C30.7362 15.8613 30.9388 16.2187 31.3015 16.496C31.6748 16.7733 32.1602 16.912 32.7575 16.912C33.3122 16.912 33.7495 16.7893 34.0695 16.544C34.3895 16.2987 34.5495 15.9893 34.5495 15.616C34.5495 15.232 34.3788 14.9493 34.0375 14.768C33.6962 14.576 33.1682 14.3893 32.4535 14.208C31.8028 14.0373 31.2695 13.8667 30.8535 13.696C30.4482 13.5147 30.0962 13.2533 29.7975 12.912C29.5095 12.56 29.3655 12.1013 29.3655 11.536C29.3655 11.088 29.4988 10.6773 29.7655 10.304C30.0322 9.93067 30.4108 9.63733 30.9015 9.424C31.3922 9.2 31.9522 9.088 32.5815 9.088C33.5522 9.088 34.3362 9.33333 34.9335 9.824C35.5308 10.3147 35.8508 10.9867 35.8935 11.84H34.4375C34.4055 11.3813 34.2188 11.0133 33.8775 10.736C33.5468 10.4587 33.0988 10.32 32.5335 10.32C32.0108 10.32 31.5948 10.432 31.2855 10.656C30.9762 10.88 30.8215 11.1733 30.8215 11.536C30.8215 11.824 30.9122 12.064 31.0935 12.256C31.2855 12.4373 31.5202 12.5867 31.7975 12.704C32.0855 12.8107 32.4802 12.9333 32.9815 13.072C33.6108 13.2427 34.1228 13.4133 34.5175 13.584C34.9122 13.744 35.2482 13.9893 35.5255 14.32C35.8135 14.6507 35.9628 15.0827 35.9735 15.616C35.9735 16.096 35.8402 16.528 35.5735 16.912C35.3068 17.296 34.9282 17.6 34.4375 17.824C33.9575 18.0373 33.4028 18.144 32.7735 18.144ZM49.7089 9.232L46.9729 18H45.4689L43.3569 11.04L41.2449 18H39.7409L36.9889 9.232H38.4769L40.4929 16.592L42.6689 9.232H44.1569L46.2849 16.608L48.2689 9.232H49.7089ZM54.9779 18.144C54.1565 18.144 53.4099 17.9573 52.7379 17.584C52.0765 17.2107 51.5539 16.6827 51.1699 16C50.7965 15.3067 50.6099 14.5067 50.6099 13.6C50.6099 12.704 50.8019 11.9147 51.1859 11.232C51.5805 10.5387 52.1139 10.0107 52.7859 9.648C53.4579 9.27467 54.2099 9.088 55.0419 9.088C55.8739 9.088 56.6259 9.27467 57.2979 9.648C57.9699 10.0107 58.4979 10.5333 58.8819 11.216C59.2765 11.8987 59.4739 12.6933 59.4739 13.6C59.4739 14.5067 59.2712 15.3067 58.8659 16C58.4712 16.6827 57.9325 17.2107 57.2499 17.584C56.5672 17.9573 55.8099 18.144 54.9779 18.144ZM54.9779 16.864C55.5005 16.864 55.9912 16.7413 56.4499 16.496C56.9085 16.2507 57.2765 15.8827 57.5539 15.392C57.8419 14.9013 57.9859 14.304 57.9859 13.6C57.9859 12.896 57.8472 12.2987 57.5699 11.808C57.2925 11.3173 56.9299 10.9547 56.4819 10.72C56.0339 10.4747 55.5485 10.352 55.0259 10.352C54.4925 10.352 54.0019 10.4747 53.5539 10.72C53.1165 10.9547 52.7645 11.3173 52.4979 11.808C52.2312 12.2987 52.0979 12.896 52.0979 13.6C52.0979 14.3147 52.2259 14.9173 52.4819 15.408C52.7485 15.8987 53.1005 16.2667 53.5379 16.512C53.9752 16.7467 54.4552 16.864 54.9779 16.864ZM62.8443 10.656C63.1003 10.1547 63.4629 9.76533 63.9323 9.488C64.4123 9.21067 64.9936 9.072 65.6763 9.072V10.576H65.2923C63.6603 10.576 62.8443 11.4613 62.8443 13.232V18H61.3883V9.232H62.8443V10.656ZM66.813 13.584C66.813 12.688 66.9943 11.904 67.357 11.232C67.7197 10.5493 68.2157 10.0213 68.845 9.648C69.485 9.27467 70.1997 9.088 70.989 9.088C71.6717 9.088 72.3063 9.248 72.893 9.568C73.4797 9.87733 73.9277 10.288 74.237 10.8V6.16H75.709V18H74.237V16.352C73.949 16.8747 73.5223 17.3067 72.957 17.648C72.3917 17.9787 71.7303 18.144 70.973 18.144C70.1943 18.144 69.485 17.952 68.845 17.568C68.2157 17.184 67.7197 16.6453 67.357 15.952C66.9943 15.2587 66.813 14.4693 66.813 13.584ZM74.237 13.6C74.237 12.9387 74.1037 12.3627 73.837 11.872C73.5703 11.3813 73.2077 11.008 72.749 10.752C72.301 10.4853 71.805 10.352 71.261 10.352C70.717 10.352 70.221 10.48 69.773 10.736C69.325 10.992 68.9677 11.3653 68.701 11.856C68.4343 12.3467 68.301 12.9227 68.301 13.584C68.301 14.256 68.4343 14.8427 68.701 15.344C68.9677 15.8347 69.325 16.2133 69.773 16.48C70.221 16.736 70.717 16.864 71.261 16.864C71.805 16.864 72.301 16.736 72.749 16.48C73.2077 16.2133 73.5703 15.8347 73.837 15.344C74.1037 14.8427 74.237 14.2613 74.237 13.6Z" fill="#555555"/>
<path d="M21.688 55.032V58.76H25.752V59.96H21.688V63.8H26.232V65H20.232V53.832H26.232V55.032H21.688ZM32.7071 56.072C33.7738 56.072 34.6378 56.3973 35.2991 57.048C35.9605 57.688 36.2911 58.616 36.2911 59.832V65H34.8511V60.04C34.8511 59.1653 34.6325 58.4987 34.1951 58.04C33.7578 57.5707 33.1605 57.336 32.4031 57.336C31.6351 57.336 31.0218 57.576 30.5631 58.056C30.1151 58.536 29.8911 59.2347 29.8911 60.152V65H28.4351V56.232H29.8911V57.48C30.1791 57.032 30.5685 56.6853 31.0591 56.44C31.5605 56.1947 32.1098 56.072 32.7071 56.072ZM40.4455 57.432V62.6C40.4455 63.0267 40.5362 63.3307 40.7175 63.512C40.8988 63.6827 41.2135 63.768 41.6615 63.768H42.7335V65H41.4215C40.6108 65 40.0028 64.8133 39.5975 64.44C39.1922 64.0667 38.9895 63.4533 38.9895 62.6V57.432H37.8535V56.232H38.9895V54.024H40.4455V56.232H42.7335V57.432H40.4455ZM52.4976 60.28C52.4976 60.5573 52.4816 60.8507 52.4496 61.16H45.4416C45.495 62.024 45.7883 62.7013 46.3216 63.192C46.8656 63.672 47.5216 63.912 48.2896 63.912C48.919 63.912 49.4416 63.768 49.8576 63.48C50.2843 63.1813 50.583 62.7867 50.7536 62.296H52.3216C52.087 63.1387 51.6176 63.8267 50.9136 64.36C50.2096 64.8827 49.335 65.144 48.2896 65.144C47.4576 65.144 46.711 64.9573 46.0496 64.584C45.399 64.2107 44.887 63.6827 44.5136 63C44.1403 62.3067 43.9536 61.5067 43.9536 60.6C43.9536 59.6933 44.135 58.8987 44.4976 58.216C44.8603 57.5333 45.367 57.0107 46.0176 56.648C46.679 56.2747 47.4363 56.088 48.2896 56.088C49.1216 56.088 49.8576 56.2693 50.4976 56.632C51.1376 56.9947 51.6283 57.496 51.9696 58.136C52.3216 58.7653 52.4976 59.48 52.4976 60.28ZM50.9936 59.976C50.9936 59.4213 50.871 58.9467 50.6256 58.552C50.3803 58.1467 50.0443 57.8427 49.6176 57.64C49.2016 57.4267 48.7376 57.32 48.2256 57.32C47.4896 57.32 46.8603 57.5547 46.3376 58.024C45.8256 58.4933 45.5323 59.144 45.4576 59.976H50.9936ZM55.8755 57.656C56.1315 57.1547 56.4942 56.7653 56.9635 56.488C57.4435 56.2107 58.0248 56.072 58.7075 56.072V57.576H58.3235C56.6915 57.576 55.8755 58.4613 55.8755 60.232V65H54.4195V56.232H55.8755V57.656ZM72.2059 56.232L66.9259 69.128H65.4219L67.1499 64.904L63.6139 56.232H65.2299L67.9819 63.336L70.7019 56.232H72.2059ZM77.4935 65.144C76.6722 65.144 75.9255 64.9573 75.2535 64.584C74.5922 64.2107 74.0695 63.6827 73.6855 63C73.3122 62.3067 73.1255 61.5067 73.1255 60.6C73.1255 59.704 73.3175 58.9147 73.7015 58.232C74.0962 57.5387 74.6295 57.0107 75.3015 56.648C75.9735 56.2747 76.7255 56.088 77.5575 56.088C78.3895 56.088 79.1415 56.2747 79.8135 56.648C80.4855 57.0107 81.0135 57.5333 81.3975 58.216C81.7922 58.8987 81.9895 59.6933 81.9895 60.6C81.9895 61.5067 81.7868 62.3067 81.3815 63C80.9868 63.6827 80.4482 64.2107 79.7655 64.584C79.0828 64.9573 78.3255 65.144 77.4935 65.144ZM77.4935 63.864C78.0162 63.864 78.5068 63.7413 78.9655 63.496C79.4242 63.2507 79.7922 62.8827 80.0695 62.392C80.3575 61.9013 80.5015 61.304 80.5015 60.6C80.5015 59.896 80.3628 59.2987 80.0855 58.808C79.8082 58.3173 79.4455 57.9547 78.9975 57.72C78.5495 57.4747 78.0642 57.352 77.5415 57.352C77.0082 57.352 76.5175 57.4747 76.0695 57.72C75.6322 57.9547 75.2802 58.3173 75.0135 58.808C74.7468 59.2987 74.6135 59.896 74.6135 60.6C74.6135 61.3147 74.7415 61.9173 74.9975 62.408C75.2642 62.8987 75.6162 63.2667 76.0535 63.512C76.4908 63.7467 76.9708 63.864 77.4935 63.864ZM91.6799 56.232V65H90.2239V63.704C89.9465 64.152 89.5572 64.504 89.0559 64.76C88.5652 65.0053 88.0212 65.128 87.4239 65.128C86.7412 65.128 86.1279 64.9893 85.5839 64.712C85.0399 64.424 84.6079 63.9973 84.2879 63.432C83.9785 62.8667 83.8239 62.1787 83.8239 61.368V56.232H85.2639V61.176C85.2639 62.04 85.4825 62.7067 85.9199 63.176C86.3572 63.6347 86.9545 63.864 87.7119 63.864C88.4905 63.864 89.1039 63.624 89.5519 63.144C89.9999 62.664 90.2239 61.9653 90.2239 61.048V56.232H91.6799ZM95.5943 57.656C95.8503 57.1547 96.2129 56.7653 96.6823 56.488C97.1623 56.2107 97.7436 56.072 98.4263 56.072V57.576H98.0423C96.4103 57.576 95.5943 58.4613 95.5943 60.232V65H94.1383V56.232H95.5943V57.656ZM105.829 57.848C106.117 57.3467 106.543 56.9307 107.109 56.6C107.685 56.2587 108.351 56.088 109.109 56.088C109.887 56.088 110.591 56.2747 111.221 56.648C111.861 57.0213 112.362 57.5493 112.725 58.232C113.087 58.904 113.269 59.688 113.269 60.584C113.269 61.4693 113.087 62.2587 112.725 62.952C112.362 63.6453 111.861 64.184 111.221 64.568C110.591 64.952 109.887 65.144 109.109 65.144C108.362 65.144 107.701 64.9787 107.125 64.648C106.559 64.3067 106.127 63.8853 105.829 63.384V69.16H104.373V56.232H105.829V57.848ZM111.781 60.584C111.781 59.9227 111.647 59.3467 111.381 58.856C111.114 58.3653 110.751 57.992 110.293 57.736C109.845 57.48 109.349 57.352 108.805 57.352C108.271 57.352 107.775 57.4853 107.317 57.752C106.869 58.008 106.506 58.3867 106.229 58.888C105.962 59.3787 105.829 59.9493 105.829 60.6C105.829 61.2613 105.962 61.8427 106.229 62.344C106.506 62.8347 106.869 63.2133 107.317 63.48C107.775 63.736 108.271 63.864 108.805 63.864C109.349 63.864 109.845 63.736 110.293 63.48C110.751 63.2133 111.114 62.8347 111.381 62.344C111.647 61.8427 111.781 61.256 111.781 60.584ZM114.641 60.584C114.641 59.688 114.822 58.904 115.185 58.232C115.548 57.5493 116.044 57.0213 116.673 56.648C117.313 56.2747 118.022 56.088 118.801 56.088C119.569 56.088 120.236 56.2533 120.801 56.584C121.366 56.9147 121.788 57.3307 122.065 57.832V56.232H123.537V65H122.065V63.368C121.777 63.88 121.345 64.3067 120.769 64.648C120.204 64.9787 119.542 65.144 118.785 65.144C118.006 65.144 117.302 64.952 116.673 64.568C116.044 64.184 115.548 63.6453 115.185 62.952C114.822 62.2587 114.641 61.4693 114.641 60.584ZM122.065 60.6C122.065 59.9387 121.932 59.3627 121.665 58.872C121.398 58.3813 121.036 58.008 120.577 57.752C120.129 57.4853 119.633 57.352 119.089 57.352C118.545 57.352 118.049 57.48 117.601 57.736C117.153 57.992 116.796 58.3653 116.529 58.856C116.262 59.3467 116.129 59.9227 116.129 60.584C116.129 61.256 116.262 61.8427 116.529 62.344C116.796 62.8347 117.153 63.2133 117.601 63.48C118.049 63.736 118.545 63.864 119.089 63.864C119.633 63.864 120.129 63.736 120.577 63.48C121.036 63.2133 121.398 62.8347 121.665 62.344C121.932 61.8427 122.065 61.2613 122.065 60.6ZM129.102 65.144C128.43 65.144 127.827 65.032 127.294 64.808C126.76 64.5733 126.339 64.2533 126.03 63.848C125.72 63.432 125.55 62.9573 125.518 62.424H127.022C127.064 62.8613 127.267 63.2187 127.63 63.496C128.003 63.7733 128.488 63.912 129.086 63.912C129.64 63.912 130.078 63.7893 130.398 63.544C130.718 63.2987 130.878 62.9893 130.878 62.616C130.878 62.232 130.707 61.9493 130.366 61.768C130.024 61.576 129.496 61.3893 128.782 61.208C128.131 61.0373 127.598 60.8667 127.182 60.696C126.776 60.5147 126.424 60.2533 126.126 59.912C125.838 59.56 125.694 59.1013 125.694 58.536C125.694 58.088 125.827 57.6773 126.094 57.304C126.36 56.9307 126.739 56.6373 127.23 56.424C127.72 56.2 128.28 56.088 128.91 56.088C129.88 56.088 130.664 56.3333 131.262 56.824C131.859 57.3147 132.179 57.9867 132.222 58.84H130.766C130.734 58.3813 130.547 58.0133 130.206 57.736C129.875 57.4587 129.427 57.32 128.862 57.32C128.339 57.32 127.923 57.432 127.614 57.656C127.304 57.88 127.15 58.1733 127.15 58.536C127.15 58.824 127.24 59.064 127.422 59.256C127.614 59.4373 127.848 59.5867 128.126 59.704C128.414 59.8107 128.808 59.9333 129.31 60.072C129.939 60.2427 130.451 60.4133 130.846 60.584C131.24 60.744 131.576 60.9893 131.854 61.32C132.142 61.6507 132.291 62.0827 132.302 62.616C132.302 63.096 132.168 63.528 131.902 63.912C131.635 64.296 131.256 64.6 130.766 64.824C130.286 65.0373 129.731 65.144 129.102 65.144ZM137.461 65.144C136.789 65.144 136.186 65.032 135.653 64.808C135.12 64.5733 134.698 64.2533 134.389 63.848C134.08 63.432 133.909 62.9573 133.877 62.424H135.381C135.424 62.8613 135.626 63.2187 135.989 63.496C136.362 63.7733 136.848 63.912 137.445 63.912C138 63.912 138.437 63.7893 138.757 63.544C139.077 63.2987 139.237 62.9893 139.237 62.616C139.237 62.232 139.066 61.9493 138.725 61.768C138.384 61.576 137.856 61.3893 137.141 61.208C136.49 61.0373 135.957 60.8667 135.541 60.696C135.136 60.5147 134.784 60.2533 134.485 59.912C134.197 59.56 134.053 59.1013 134.053 58.536C134.053 58.088 134.186 57.6773 134.453 57.304C134.72 56.9307 135.098 56.6373 135.589 56.424C136.08 56.2 136.64 56.088 137.269 56.088C138.24 56.088 139.024 56.3333 139.621 56.824C140.218 57.3147 140.538 57.9867 140.581 58.84H139.125C139.093 58.3813 138.906 58.0133 138.565 57.736C138.234 57.4587 137.786 57.32 137.221 57.32C136.698 57.32 136.282 57.432 135.973 57.656C135.664 57.88 135.509 58.1733 135.509 58.536C135.509 58.824 135.6 59.064 135.781 59.256C135.973 59.4373 136.208 59.5867 136.485 59.704C136.773 59.8107 137.168 59.9333 137.669 60.072C138.298 60.2427 138.81 60.4133 139.205 60.584C139.6 60.744 139.936 60.9893 140.213 61.32C140.501 61.6507 140.65 62.0827 140.661 62.616C140.661 63.096 140.528 63.528 140.261 63.912C139.994 64.296 139.616 64.6 139.125 64.824C138.645 65.0373 138.09 65.144 137.461 65.144ZM154.396 56.232L151.66 65H150.156L148.044 58.04L145.932 65H144.428L141.676 56.232H143.164L145.18 63.592L147.356 56.232H148.844L150.972 63.608L152.956 56.232H154.396ZM159.665 65.144C158.844 65.144 158.097 64.9573 157.425 64.584C156.764 64.2107 156.241 63.6827 155.857 63C155.484 62.3067 155.297 61.5067 155.297 60.6C155.297 59.704 155.489 58.9147 155.873 58.232C156.268 57.5387 156.801 57.0107 157.473 56.648C158.145 56.2747 158.897 56.088 159.729 56.088C160.561 56.088 161.313 56.2747 161.985 56.648C162.657 57.0107 163.185 57.5333 163.569 58.216C163.964 58.8987 164.161 59.6933 164.161 60.6C164.161 61.5067 163.959 62.3067 163.553 63C163.159 63.6827 162.62 64.2107 161.937 64.584C161.255 64.9573 160.497 65.144 159.665 65.144ZM159.665 63.864C160.188 63.864 160.679 63.7413 161.137 63.496C161.596 63.2507 161.964 62.8827 162.241 62.392C162.529 61.9013 162.673 61.304 162.673 60.6C162.673 59.896 162.535 59.2987 162.257 58.808C161.98 58.3173 161.617 57.9547 161.169 57.72C160.721 57.4747 160.236 57.352 159.713 57.352C159.18 57.352 158.689 57.4747 158.241 57.72C157.804 57.9547 157.452 58.3173 157.185 58.808C156.919 59.2987 156.785 59.896 156.785 60.6C156.785 61.3147 156.913 61.9173 157.169 62.408C157.436 62.8987 157.788 63.2667 158.225 63.512C158.663 63.7467 159.143 63.864 159.665 63.864ZM167.532 57.656C167.788 57.1547 168.15 56.7653 168.62 56.488C169.1 56.2107 169.681 56.072 170.364 56.072V57.576H169.98C168.348 57.576 167.532 58.4613 167.532 60.232V65H166.076V56.232H167.532V57.656ZM171.501 60.584C171.501 59.688 171.682 58.904 172.045 58.232C172.407 57.5493 172.903 57.0213 173.533 56.648C174.173 56.2747 174.887 56.088 175.677 56.088C176.359 56.088 176.994 56.248 177.581 56.568C178.167 56.8773 178.615 57.288 178.925 57.8V53.16H180.397V65H178.925V63.352C178.637 63.8747 178.21 64.3067 177.645 64.648C177.079 64.9787 176.418 65.144 175.661 65.144C174.882 65.144 174.173 64.952 173.533 64.568C172.903 64.184 172.407 63.6453 172.045 62.952C171.682 62.2587 171.501 61.4693 171.501 60.584ZM178.925 60.6C178.925 59.9387 178.791 59.3627 178.525 58.872C178.258 58.3813 177.895 58.008 177.437 57.752C176.989 57.4853 176.493 57.352 175.949 57.352C175.405 57.352 174.909 57.48 174.461 57.736C174.013 57.992 173.655 58.3653 173.389 58.856C173.122 59.3467 172.989 59.9227 172.989 60.584C172.989 61.256 173.122 61.8427 173.389 62.344C173.655 62.8347 174.013 63.2133 174.461 63.48C174.909 63.736 175.405 63.864 175.949 63.864C176.493 63.864 176.989 63.736 177.437 63.48C177.895 63.2133 178.258 62.8347 178.525 62.344C178.791 61.8427 178.925 61.2613 178.925 60.6Z" fill="#555555"/>
<g clip-path="url(#clip0_302_393)">
<path d="M392 57H393C393.265 57 393.52 57.1054 393.707 57.2929C393.895 57.4804 394 57.7348 394 58V68C394 68.2652 393.895 68.5196 393.707 68.7071C393.52 68.8946 393.265 69 393 69H377C376.735 69 376.48 68.8946 376.293 68.7071C376.105 68.5196 376 68.2652 376 68V58C376 57.7348 376.105 57.4804 376.293 57.2929C376.48 57.1054 376.735 57 377 57H378V56C378 55.0807 378.181 54.1705 378.533 53.3212C378.885 52.4719 379.4 51.7003 380.05 51.0503C380.7 50.4002 381.472 49.8846 382.321 49.5328C383.17 49.1811 384.081 49 385 49C385.919 49 386.83 49.1811 387.679 49.5328C388.528 49.8846 389.3 50.4002 389.95 51.0503C390.6 51.7003 391.115 52.4719 391.467 53.3212C391.819 54.1705 392 55.0807 392 56V57ZM378 59V67H392V59H378ZM384 61H386V65H384V61ZM390 57V56C390 54.6739 389.473 53.4021 388.536 52.4645C387.598 51.5268 386.326 51 385 51C383.674 51 382.402 51.5268 381.464 52.4645C380.527 53.4021 380 54.6739 380 56V57H390Z" fill="white"/>
</g>
<defs>
<clipPath id="clip0_302_393">
<rect width="24" height="24" fill="white" transform="translate(373 47)"/>
</clipPath>
</defs>
</svg>
