<svg width="434" height="74" viewBox="0 0 434 74" fill="none" xmlns="http://www.w3.org/2000/svg">
<g filter="url(#filter0_d_302_402)">
<rect x="12" y="4" width="410" height="50" rx="8" fill="#7001FD"/>
</g>
<path d="M179.344 33.224H183.024V35H177.104V23.832H179.344V33.224ZM188.384 35.144C187.53 35.144 186.762 34.9573 186.08 34.584C185.397 34.2 184.858 33.6613 184.464 32.968C184.08 32.2747 183.888 31.4747 183.888 30.568C183.888 29.6613 184.085 28.8613 184.48 28.168C184.885 27.4747 185.434 26.9413 186.128 26.568C186.821 26.184 187.594 25.992 188.448 25.992C189.301 25.992 190.074 26.184 190.768 26.568C191.461 26.9413 192.005 27.4747 192.4 28.168C192.805 28.8613 193.008 29.6613 193.008 30.568C193.008 31.4747 192.8 32.2747 192.384 32.968C191.978 33.6613 191.424 34.2 190.72 34.584C190.026 34.9573 189.248 35.144 188.384 35.144ZM188.384 33.192C188.789 33.192 189.168 33.096 189.52 32.904C189.882 32.7013 190.17 32.4027 190.384 32.008C190.597 31.6133 190.704 31.1333 190.704 30.568C190.704 29.7253 190.48 29.08 190.032 28.632C189.594 28.1733 189.056 27.944 188.416 27.944C187.776 27.944 187.237 28.1733 186.8 28.632C186.373 29.08 186.16 29.7253 186.16 30.568C186.16 31.4107 186.368 32.0613 186.784 32.52C187.21 32.968 187.744 33.192 188.384 33.192ZM198.123 25.992C198.784 25.992 199.366 26.1253 199.867 26.392C200.368 26.648 200.763 26.984 201.051 27.4V26.136H203.307V35.064C203.307 35.8853 203.142 36.616 202.811 37.256C202.48 37.9067 201.984 38.4187 201.323 38.792C200.662 39.176 199.862 39.368 198.923 39.368C197.664 39.368 196.63 39.0747 195.819 38.488C195.019 37.9013 194.566 37.1013 194.459 36.088H196.683C196.8 36.4933 197.051 36.8133 197.435 37.048C197.83 37.2933 198.304 37.416 198.859 37.416C199.51 37.416 200.038 37.2187 200.443 36.824C200.848 36.44 201.051 35.8533 201.051 35.064V33.688C200.763 34.104 200.363 34.4507 199.851 34.728C199.35 35.0053 198.774 35.144 198.123 35.144C197.376 35.144 196.694 34.952 196.075 34.568C195.456 34.184 194.966 33.6453 194.603 32.952C194.251 32.248 194.075 31.4427 194.075 30.536C194.075 29.64 194.251 28.8453 194.603 28.152C194.966 27.4587 195.451 26.9253 196.059 26.552C196.678 26.1787 197.366 25.992 198.123 25.992ZM201.051 30.568C201.051 30.024 200.944 29.56 200.731 29.176C200.518 28.7813 200.23 28.4827 199.867 28.28C199.504 28.0667 199.115 27.96 198.699 27.96C198.283 27.96 197.899 28.0613 197.547 28.264C197.195 28.4667 196.907 28.7653 196.683 29.16C196.47 29.544 196.363 30.0027 196.363 30.536C196.363 31.0693 196.47 31.5387 196.683 31.944C196.907 32.3387 197.195 32.6427 197.547 32.856C197.91 33.0693 198.294 33.176 198.699 33.176C199.115 33.176 199.504 33.0747 199.867 32.872C200.23 32.6587 200.518 32.36 200.731 31.976C200.944 31.5813 201.051 31.112 201.051 30.568ZM206.631 25.08C206.236 25.08 205.905 24.9573 205.639 24.712C205.383 24.456 205.255 24.1413 205.255 23.768C205.255 23.3947 205.383 23.0853 205.639 22.84C205.905 22.584 206.236 22.456 206.631 22.456C207.025 22.456 207.351 22.584 207.607 22.84C207.873 23.0853 208.007 23.3947 208.007 23.768C208.007 24.1413 207.873 24.456 207.607 24.712C207.351 24.9573 207.025 25.08 206.631 25.08ZM207.735 26.136V35H205.495V26.136H207.735ZM214.86 26.008C215.916 26.008 216.769 26.344 217.42 27.016C218.07 27.6773 218.396 28.6053 218.396 29.8V35H216.156V30.104C216.156 29.4 215.98 28.8613 215.628 28.488C215.276 28.104 214.796 27.912 214.188 27.912C213.569 27.912 213.078 28.104 212.716 28.488C212.364 28.8613 212.188 29.4 212.188 30.104V35H209.948V26.136H212.188V27.24C212.486 26.856 212.865 26.5573 213.324 26.344C213.793 26.12 214.305 26.008 214.86 26.008ZM233.89 35H231.65L226.578 27.336V35H224.338V23.816H226.578L231.65 31.496V23.816H233.89V35ZM240.04 35.144C239.187 35.144 238.419 34.9573 237.736 34.584C237.053 34.2 236.515 33.6613 236.12 32.968C235.736 32.2747 235.544 31.4747 235.544 30.568C235.544 29.6613 235.741 28.8613 236.136 28.168C236.541 27.4747 237.091 26.9413 237.784 26.568C238.477 26.184 239.251 25.992 240.104 25.992C240.957 25.992 241.731 26.184 242.424 26.568C243.117 26.9413 243.661 27.4747 244.056 28.168C244.461 28.8613 244.664 29.6613 244.664 30.568C244.664 31.4747 244.456 32.2747 244.04 32.968C243.635 33.6613 243.08 34.2 242.376 34.584C241.683 34.9573 240.904 35.144 240.04 35.144ZM240.04 33.192C240.445 33.192 240.824 33.096 241.176 32.904C241.539 32.7013 241.827 32.4027 242.04 32.008C242.253 31.6133 242.36 31.1333 242.36 30.568C242.36 29.7253 242.136 29.08 241.688 28.632C241.251 28.1733 240.712 27.944 240.072 27.944C239.432 27.944 238.893 28.1733 238.456 28.632C238.029 29.08 237.816 29.7253 237.816 30.568C237.816 31.4107 238.024 32.0613 238.44 32.52C238.867 32.968 239.4 33.192 240.04 33.192ZM258.595 26.136L256.003 35H253.587L251.971 28.808L250.355 35H247.923L245.315 26.136H247.587L249.155 32.888L250.851 26.136H253.219L254.883 32.872L256.451 26.136H258.595Z" fill="white"/>
<defs>
<filter id="filter0_d_302_402" x="0" y="0" width="434" height="74" filterUnits="userSpaceOnUse" color-interpolation-filters="sRGB">
<feFlood flood-opacity="0" result="BackgroundImageFix"/>
<feColorMatrix in="SourceAlpha" type="matrix" values="0 0 0 0 0 0 0 0 0 0 0 0 0 0 0 0 0 0 127 0" result="hardAlpha"/>
<feOffset dy="8"/>
<feGaussianBlur stdDeviation="6"/>
<feComposite in2="hardAlpha" operator="out"/>
<feColorMatrix type="matrix" values="0 0 0 0 0.581294 0 0 0 0 0.252311 0 0 0 0 1 0 0 0 0.2 0"/>
<feBlend mode="normal" in2="BackgroundImageFix" result="effect1_dropShadow_302_402"/>
<feBlend mode="normal" in="SourceGraphic" in2="effect1_dropShadow_302_402" result="shape"/>
</filter>
</defs>
</svg>
