<svg width="240" height="23" viewBox="0 0 240 23" fill="none" xmlns="http://www.w3.org/2000/svg">
<path d="M3.66 14.36H8.14V17H0.24V2.96H3.66V14.36ZM14.8513 17.16C13.7579 17.16 12.7713 16.9267 11.8913 16.46C11.0246 15.9933 10.3379 15.3267 9.83125 14.46C9.33792 13.5933 9.09125 12.58 9.09125 11.42C9.09125 10.2733 9.34458 9.26667 9.85125 8.4C10.3579 7.52 11.0513 6.84667 11.9313 6.38C12.8113 5.91333 13.7979 5.68 14.8913 5.68C15.9846 5.68 16.9713 5.91333 17.8513 6.38C18.7313 6.84667 19.4246 7.52 19.9313 8.4C20.4379 9.26667 20.6913 10.2733 20.6913 11.42C20.6913 12.5667 20.4313 13.58 19.9113 14.46C19.4046 15.3267 18.7046 15.9933 17.8113 16.46C16.9313 16.9267 15.9446 17.16 14.8513 17.16ZM14.8513 14.2C15.5046 14.2 16.0579 13.96 16.5113 13.48C16.9779 13 17.2113 12.3133 17.2113 11.42C17.2113 10.5267 16.9846 9.84 16.5313 9.36C16.0913 8.88 15.5446 8.64 14.8913 8.64C14.2246 8.64 13.6713 8.88 13.2313 9.36C12.7913 9.82667 12.5713 10.5133 12.5713 11.42C12.5713 12.3133 12.7846 13 13.2113 13.48C13.6513 13.96 14.1979 14.2 14.8513 14.2ZM26.7456 5.68C27.5323 5.68 28.219 5.84 28.8056 6.16C29.4056 6.48 29.8656 6.9 30.1856 7.42V5.84H33.6056V16.98C33.6056 18.0067 33.399 18.9333 32.9856 19.76C32.5856 20.6 31.9656 21.2667 31.1256 21.76C30.299 22.2533 29.2656 22.5 28.0256 22.5C26.3723 22.5 25.0323 22.1067 24.0056 21.32C22.979 20.5467 22.3923 19.4933 22.2456 18.16H25.6256C25.7323 18.5867 25.9856 18.92 26.3856 19.16C26.7856 19.4133 27.279 19.54 27.8656 19.54C28.5723 19.54 29.1323 19.3333 29.5456 18.92C29.9723 18.52 30.1856 17.8733 30.1856 16.98V15.4C29.8523 15.92 29.3923 16.3467 28.8056 16.68C28.219 17 27.5323 17.16 26.7456 17.16C25.8256 17.16 24.9923 16.9267 24.2456 16.46C23.499 15.98 22.9056 15.3067 22.4656 14.44C22.039 13.56 21.8256 12.5467 21.8256 11.4C21.8256 10.2533 22.039 9.24667 22.4656 8.38C22.9056 7.51333 23.499 6.84667 24.2456 6.38C24.9923 5.91333 25.8256 5.68 26.7456 5.68ZM30.1856 11.42C30.1856 10.5667 29.9456 9.89333 29.4656 9.4C28.999 8.90667 28.4256 8.66 27.7456 8.66C27.0656 8.66 26.4856 8.90667 26.0056 9.4C25.539 9.88 25.3056 10.5467 25.3056 11.4C25.3056 12.2533 25.539 12.9333 26.0056 13.44C26.4856 13.9333 27.0656 14.18 27.7456 14.18C28.4256 14.18 28.999 13.9333 29.4656 13.44C29.9456 12.9467 30.1856 12.2733 30.1856 11.42ZM37.7998 4.68C37.1998 4.68 36.7065 4.50667 36.3198 4.16C35.9465 3.8 35.7598 3.36 35.7598 2.84C35.7598 2.30667 35.9465 1.86667 36.3198 1.52C36.7065 1.16 37.1998 0.979999 37.7998 0.979999C38.3865 0.979999 38.8665 1.16 39.2398 1.52C39.6265 1.86667 39.8198 2.30667 39.8198 2.84C39.8198 3.36 39.6265 3.8 39.2398 4.16C38.8665 4.50667 38.3865 4.68 37.7998 4.68ZM39.4998 5.84V17H36.0798V5.84H39.4998ZM48.7783 5.72C50.0849 5.72 51.1249 6.14667 51.8983 7C52.6849 7.84 53.0783 9 53.0783 10.48V17H49.6783V10.94C49.6783 10.1933 49.4849 9.61333 49.0983 9.2C48.7116 8.78667 48.1916 8.58 47.5383 8.58C46.8849 8.58 46.3649 8.78667 45.9783 9.2C45.5916 9.61333 45.3983 10.1933 45.3983 10.94V17H41.9783V5.84H45.3983V7.32C45.7449 6.82667 46.2116 6.44 46.7983 6.16C47.3849 5.86667 48.0449 5.72 48.7783 5.72ZM61.4131 4.68C60.8131 4.68 60.3198 4.50667 59.9331 4.16C59.5598 3.8 59.3731 3.36 59.3731 2.84C59.3731 2.30667 59.5598 1.86667 59.9331 1.52C60.3198 1.16 60.8131 0.979999 61.4131 0.979999C61.9998 0.979999 62.4798 1.16 62.8531 1.52C63.2398 1.86667 63.4331 2.30667 63.4331 2.84C63.4331 3.36 63.2398 3.8 62.8531 4.16C62.4798 4.50667 61.9998 4.68 61.4131 4.68ZM63.1131 5.84V17H59.6931V5.84H63.1131ZM72.3916 5.72C73.6982 5.72 74.7382 6.14667 75.5116 7C76.2982 7.84 76.6916 9 76.6916 10.48V17H73.2916V10.94C73.2916 10.1933 73.0982 9.61333 72.7116 9.2C72.3249 8.78667 71.8049 8.58 71.1516 8.58C70.4982 8.58 69.9782 8.78667 69.5916 9.2C69.2049 9.61333 69.0116 10.1933 69.0116 10.94V17H65.5916V5.84H69.0116V7.32C69.3582 6.82667 69.8249 6.44 70.4116 6.16C70.9982 5.86667 71.6582 5.72 72.3916 5.72ZM85.2881 14.1V17H83.5481C82.3081 17 81.3415 16.7 80.6481 16.1C79.9548 15.4867 79.6081 14.4933 79.6081 13.12V8.68H78.2481V5.84H79.6081V3.12H83.0281V5.84H85.2681V8.68H83.0281V13.16C83.0281 13.4933 83.1081 13.7333 83.2681 13.88C83.4281 14.0267 83.6948 14.1 84.0681 14.1H85.2881ZM92.2731 17.16C91.1798 17.16 90.1931 16.9267 89.3131 16.46C88.4465 15.9933 87.7598 15.3267 87.2531 14.46C86.7598 13.5933 86.5131 12.58 86.5131 11.42C86.5131 10.2733 86.7665 9.26667 87.2731 8.4C87.7798 7.52 88.4731 6.84667 89.3531 6.38C90.2331 5.91333 91.2198 5.68 92.3131 5.68C93.4065 5.68 94.3931 5.91333 95.2731 6.38C96.1531 6.84667 96.8465 7.52 97.3531 8.4C97.8598 9.26667 98.1131 10.2733 98.1131 11.42C98.1131 12.5667 97.8531 13.58 97.3331 14.46C96.8265 15.3267 96.1265 15.9933 95.2331 16.46C94.3531 16.9267 93.3665 17.16 92.2731 17.16ZM92.2731 14.2C92.9265 14.2 93.4798 13.96 93.9331 13.48C94.3998 13 94.6331 12.3133 94.6331 11.42C94.6331 10.5267 94.4065 9.84 93.9531 9.36C93.5131 8.88 92.9665 8.64 92.3131 8.64C91.6465 8.64 91.0931 8.88 90.6531 9.36C90.2131 9.82667 89.9931 10.5133 89.9931 11.42C89.9931 12.3133 90.2065 13 90.6331 13.48C91.0731 13.96 91.6198 14.2 92.2731 14.2ZM115.566 5.84L108.566 22.3H104.886L107.446 16.62L102.906 5.84H106.726L109.306 12.82L111.866 5.84H115.566ZM121.883 17.16C120.789 17.16 119.803 16.9267 118.923 16.46C118.056 15.9933 117.369 15.3267 116.863 14.46C116.369 13.5933 116.123 12.58 116.123 11.42C116.123 10.2733 116.376 9.26667 116.882 8.4C117.389 7.52 118.083 6.84667 118.963 6.38C119.843 5.91333 120.829 5.68 121.923 5.68C123.016 5.68 124.003 5.91333 124.883 6.38C125.763 6.84667 126.456 7.52 126.963 8.4C127.469 9.26667 127.723 10.2733 127.723 11.42C127.723 12.5667 127.463 13.58 126.943 14.46C126.436 15.3267 125.736 15.9933 124.843 16.46C123.963 16.9267 122.976 17.16 121.883 17.16ZM121.883 14.2C122.536 14.2 123.089 13.96 123.543 13.48C124.009 13 124.243 12.3133 124.243 11.42C124.243 10.5267 124.016 9.84 123.563 9.36C123.123 8.88 122.576 8.64 121.923 8.64C121.256 8.64 120.703 8.88 120.263 9.36C119.823 9.82667 119.603 10.5133 119.603 11.42C119.603 12.3133 119.816 13 120.243 13.48C120.683 13.96 121.229 14.2 121.883 14.2ZM140.557 5.84V17H137.137V15.48C136.79 15.9733 136.317 16.3733 135.717 16.68C135.13 16.9733 134.477 17.12 133.757 17.12C132.904 17.12 132.15 16.9333 131.497 16.56C130.844 16.1733 130.337 15.62 129.977 14.9C129.617 14.18 129.437 13.3333 129.437 12.36V5.84H132.837V11.9C132.837 12.6467 133.03 13.2267 133.417 13.64C133.804 14.0533 134.324 14.26 134.977 14.26C135.644 14.26 136.17 14.0533 136.557 13.64C136.944 13.2267 137.137 12.6467 137.137 11.9V5.84H140.557ZM146.433 7.7C146.833 7.08667 147.333 6.60667 147.933 6.26C148.533 5.9 149.2 5.72 149.933 5.72V9.34H148.993C148.14 9.34 147.5 9.52667 147.073 9.9C146.647 10.26 146.433 10.9 146.433 11.82V17H143.013V5.84H146.433V7.7ZM155.126 11.4C155.126 10.2533 155.34 9.24667 155.766 8.38C156.206 7.51333 156.8 6.84667 157.546 6.38C158.293 5.91333 159.126 5.68 160.046 5.68C160.833 5.68 161.52 5.84 162.106 6.16C162.706 6.48 163.166 6.9 163.486 7.42V5.84H166.906V17H163.486V15.42C163.153 15.94 162.686 16.36 162.086 16.68C161.5 17 160.813 17.16 160.026 17.16C159.12 17.16 158.293 16.9267 157.546 16.46C156.8 15.98 156.206 15.3067 155.766 14.44C155.34 13.56 155.126 12.5467 155.126 11.4ZM163.486 11.42C163.486 10.5667 163.246 9.89333 162.766 9.4C162.3 8.90667 161.726 8.66 161.046 8.66C160.366 8.66 159.786 8.90667 159.306 9.4C158.84 9.88 158.606 10.5467 158.606 11.4C158.606 12.2533 158.84 12.9333 159.306 13.44C159.786 13.9333 160.366 14.18 161.046 14.18C161.726 14.18 162.3 13.9333 162.766 13.44C163.246 12.9467 163.486 12.2733 163.486 11.42ZM168.701 11.42C168.701 10.26 168.934 9.24667 169.401 8.38C169.881 7.51333 170.541 6.84667 171.381 6.38C172.234 5.91333 173.207 5.68 174.301 5.68C175.701 5.68 176.867 6.04667 177.801 6.78C178.747 7.51333 179.367 8.54667 179.661 9.88H176.021C175.714 9.02667 175.121 8.6 174.241 8.6C173.614 8.6 173.114 8.84667 172.741 9.34C172.367 9.82 172.181 10.5133 172.181 11.42C172.181 12.3267 172.367 13.0267 172.741 13.52C173.114 14 173.614 14.24 174.241 14.24C175.121 14.24 175.714 13.8133 176.021 12.96H179.661C179.367 14.2667 178.747 15.2933 177.801 16.04C176.854 16.7867 175.687 17.16 174.301 17.16C173.207 17.16 172.234 16.9267 171.381 16.46C170.541 15.9933 169.881 15.3267 169.401 14.46C168.934 13.5933 168.701 12.58 168.701 11.42ZM180.81 11.42C180.81 10.26 181.043 9.24667 181.51 8.38C181.99 7.51333 182.65 6.84667 183.49 6.38C184.343 5.91333 185.317 5.68 186.41 5.68C187.81 5.68 188.977 6.04667 189.91 6.78C190.857 7.51333 191.477 8.54667 191.77 9.88H188.13C187.823 9.02667 187.23 8.6 186.35 8.6C185.723 8.6 185.223 8.84667 184.85 9.34C184.477 9.82 184.29 10.5133 184.29 11.42C184.29 12.3267 184.477 13.0267 184.85 13.52C185.223 14 185.723 14.24 186.35 14.24C187.23 14.24 187.823 13.8133 188.13 12.96H191.77C191.477 14.2667 190.857 15.2933 189.91 16.04C188.963 16.7867 187.797 17.16 186.41 17.16C185.317 17.16 184.343 16.9267 183.49 16.46C182.65 15.9933 181.99 15.3267 181.51 14.46C181.043 13.5933 180.81 12.58 180.81 11.42ZM198.679 17.16C197.586 17.16 196.599 16.9267 195.719 16.46C194.853 15.9933 194.166 15.3267 193.659 14.46C193.166 13.5933 192.919 12.58 192.919 11.42C192.919 10.2733 193.173 9.26667 193.679 8.4C194.186 7.52 194.879 6.84667 195.759 6.38C196.639 5.91333 197.626 5.68 198.719 5.68C199.813 5.68 200.799 5.91333 201.679 6.38C202.559 6.84667 203.253 7.52 203.759 8.4C204.266 9.26667 204.519 10.2733 204.519 11.42C204.519 12.5667 204.259 13.58 203.739 14.46C203.233 15.3267 202.533 15.9933 201.639 16.46C200.759 16.9267 199.773 17.16 198.679 17.16ZM198.679 14.2C199.333 14.2 199.886 13.96 200.339 13.48C200.806 13 201.039 12.3133 201.039 11.42C201.039 10.5267 200.813 9.84 200.359 9.36C199.919 8.88 199.373 8.64 198.719 8.64C198.053 8.64 197.499 8.88 197.059 9.36C196.619 9.82667 196.399 10.5133 196.399 11.42C196.399 12.3133 196.613 13 197.039 13.48C197.479 13.96 198.026 14.2 198.679 14.2ZM217.354 5.84V17H213.934V15.48C213.587 15.9733 213.114 16.3733 212.514 16.68C211.927 16.9733 211.274 17.12 210.554 17.12C209.7 17.12 208.947 16.9333 208.294 16.56C207.64 16.1733 207.134 15.62 206.774 14.9C206.414 14.18 206.234 13.3333 206.234 12.36V5.84H209.634V11.9C209.634 12.6467 209.827 13.2267 210.214 13.64C210.6 14.0533 211.12 14.26 211.774 14.26C212.44 14.26 212.967 14.0533 213.354 13.64C213.74 13.2267 213.934 12.6467 213.934 11.9V5.84H217.354ZM226.61 5.72C227.917 5.72 228.957 6.14667 229.73 7C230.517 7.84 230.91 9 230.91 10.48V17H227.51V10.94C227.51 10.1933 227.317 9.61333 226.93 9.2C226.544 8.78667 226.024 8.58 225.37 8.58C224.717 8.58 224.197 8.78667 223.81 9.2C223.424 9.61333 223.23 10.1933 223.23 10.94V17H219.81V5.84H223.23V7.32C223.577 6.82667 224.044 6.44 224.63 6.16C225.217 5.86667 225.877 5.72 226.61 5.72ZM239.507 14.1V17H237.767C236.527 17 235.56 16.7 234.867 16.1C234.174 15.4867 233.827 14.4933 233.827 13.12V8.68H232.467V5.84H233.827V3.12H237.247V5.84H239.487V8.68H237.247V13.16C237.247 13.4933 237.327 13.7333 237.487 13.88C237.647 14.0267 237.914 14.1 238.287 14.1H239.507Z" fill="black"/>
</svg>
